<svg class="main-svg" xmlns="http://www.w3.org/2000/svg" xmlns:xlink="http://www.w3.org/1999/xlink" width="2200" height="546" style="" viewBox="0 0 1100 273"><rect x="0" y="0" width="1100" height="273" style="fill: rgb(0, 0, 0); fill-opacity: 0;"/><defs id="defs-6fd7dc"><g class="clips"><clipPath id="clip6fd7dcxyplot" class="plotclip"><rect width="1005" height="42.230769230769226"/></clipPath><clipPath id="clip6fd7dcx2y2plot" class="plotclip"><rect width="1005" height="42.230769230769226"/></clipPath><clipPath id="clip6fd7dcx3y3plot" class="plotclip"><rect width="1005" height="42.230769230769226"/></clipPath><clipPath class="axesclip" id="clip6fd7dcx"><rect x="80" y="0" width="1005" height="273"/></clipPath><clipPath class="axesclip" id="clip6fd7dcy"><rect x="0" y="50.00000000000002" width="1100" height="42.230769230769226"/></clipPath><clipPath class="axesclip" id="clip6fd7dcxy"><rect x="80" y="50.00000000000002" width="1005" height="42.230769230769226"/></clipPath><clipPath class="axesclip" id="clip6fd7dcy2"><rect x="0" y="120.3846153846154" width="1100" height="42.230769230769226"/></clipPath><clipPath class="axesclip" id="clip6fd7dcxy2"><rect x="80" y="120.3846153846154" width="1005" height="42.230769230769226"/></clipPath><clipPath class="axesclip" id="clip6fd7dcy3"><rect x="0" y="190.76923076923077" width="1100" height="42.230769230769226"/></clipPath><clipPath class="axesclip" id="clip6fd7dcxy3"><rect x="80" y="190.76923076923077" width="1005" height="42.230769230769226"/></clipPath><clipPath class="axesclip" id="clip6fd7dcx2"><rect x="80" y="0" width="1005" height="273"/></clipPath><clipPath class="axesclip" id="clip6fd7dcx2y"><rect x="80" y="50.00000000000002" width="1005" height="42.230769230769226"/></clipPath><clipPath class="axesclip" id="clip6fd7dcx2y2"><rect x="80" y="120.3846153846154" width="1005" height="42.230769230769226"/></clipPath><clipPath class="axesclip" id="clip6fd7dcx2y3"><rect x="80" y="190.76923076923077" width="1005" height="42.230769230769226"/></clipPath><clipPath class="axesclip" id="clip6fd7dcx3"><rect x="80" y="0" width="1005" height="273"/></clipPath><clipPath class="axesclip" id="clip6fd7dcx3y"><rect x="80" y="50.00000000000002" width="1005" height="42.230769230769226"/></clipPath><clipPath class="axesclip" id="clip6fd7dcx3y2"><rect x="80" y="120.3846153846154" width="1005" height="42.230769230769226"/></clipPath><clipPath class="axesclip" id="clip6fd7dcx3y3"><rect x="80" y="190.76923076923077" width="1005" height="42.230769230769226"/></clipPath></g><g class="gradients"/><g class="patterns"/></defs><g class="bglayer"><rect class="bg" x="80" y="50.00000000000002" width="1005" height="42.230769230769226" style="fill: rgb(0, 0, 0); fill-opacity: 0; stroke-width: 0;"/><rect class="bg" x="80" y="120.3846153846154" width="1005" height="42.230769230769226" style="fill: rgb(0, 0, 0); fill-opacity: 0; stroke-width: 0;"/><rect class="bg" x="80" y="190.76923076923077" width="1005" height="42.230769230769226" style="fill: rgb(0, 0, 0); fill-opacity: 0; stroke-width: 0;"/></g><g class="layer-below"><g class="imagelayer"/><g class="shapelayer"/></g><g class="cartesianlayer"><g class="subplot xy"><g class="layer-subplot"><g class="shapelayer"/><g class="imagelayer"/></g><g class="minor-gridlayer"><g class="x"/><g class="y"/></g><g class="gridlayer"><g class="x"><path class="xgrid crisp" transform="translate(238.06,0)" d="M0,50.00000000000002v42.230769230769226" style="stroke: rgb(0, 0, 0); stroke-opacity: 0.1; stroke-width: 1px;"/><path class="xgrid crisp" transform="translate(391.14,0)" d="M0,50.00000000000002v42.230769230769226" style="stroke: rgb(0, 0, 0); stroke-opacity: 0.1; stroke-width: 1px;"/><path class="xgrid crisp" transform="translate(544.22,0)" d="M0,50.00000000000002v42.230769230769226" style="stroke: rgb(0, 0, 0); stroke-opacity: 0.1; stroke-width: 1px;"/><path class="xgrid crisp" transform="translate(697.3,0)" d="M0,50.00000000000002v42.230769230769226" style="stroke: rgb(0, 0, 0); stroke-opacity: 0.1; stroke-width: 1px;"/><path class="xgrid crisp" transform="translate(850.38,0)" d="M0,50.00000000000002v42.230769230769226" style="stroke: rgb(0, 0, 0); stroke-opacity: 0.1; stroke-width: 1px;"/><path class="xgrid crisp" transform="translate(1003.46,0)" d="M0,50.00000000000002v42.230769230769226" style="stroke: rgb(0, 0, 0); stroke-opacity: 0.1; stroke-width: 1px;"/></g><g class="y"><path class="ygrid crisp" transform="translate(0,71.12000000000002)" d="M80,0h1005" style="stroke: rgb(0, 0, 0); stroke-opacity: 0.1; stroke-width: 1px;"/></g></g><g class="zerolinelayer"><path class="xzl zl crisp" transform="translate(84.98,0)" d="M0,50.00000000000002v42.230769230769226" style="stroke: rgb(0, 0, 0); stroke-opacity: 0.1; stroke-width: 2px;"/></g><path class="xlines-below"/><path class="ylines-below"/><g class="overlines-below"/><g class="xaxislayer-below"/><g class="yaxislayer-below"/><g class="overaxes-below"/><g class="plot" transform="translate(80,50.00000000000002)" clip-path="url(#clip6fd7dcxyplot)"><g class="violinlayer mlayer"><g class="trace violins" style="opacity: 0.5;"><path class="violin" d="M843.86,19.12Q844.21,18.05 844.37,17.43C844.56,16.71 844.72,15.88 844.88,15.04C845.06,14.12 845.22,13.11 845.39,12.15C845.56,11.19 845.72,10.17 845.9,9.28C846.06,8.51 846.19,7.66 846.41,7.13C846.56,6.78 846.75,6.33 846.92,6.33C847.09,6.33 847.28,6.78 847.43,7.13C847.65,7.66 847.78,8.51 847.94,9.28C848.12,10.17 848.28,11.19 848.45,12.15C848.62,13.11 848.78,14.12 848.96,15.04C849.12,15.88 849.28,16.71 849.47,17.43C849.63,18.05 849.79,18.63 849.98,19.12C850.14,19.51 850.3,19.86 850.49,20.14C850.65,20.36 850.82,20.55 851,20.69C851.16,20.81 851.34,20.89 851.51,20.95C851.68,21.01 851.85,21.03 852.02,21.06C852.19,21.08 852.36,21.09 852.53,21.1C852.7,21.11 852.87,21.11 853.04,21.11C853.21,21.11 853.38,21.11 853.55,21.11C853.72,21.11 853.89,21.12 854.06,21.12C854.23,21.12 854.4,21.12 854.57,21.12C854.74,21.12 854.91,21.12 855.08,21.12C855.25,21.12 855.42,21.12 855.59,21.12C855.76,21.12 855.93,21.12 856.1,21.12C856.27,21.12 856.44,21.12 856.61,21.12C856.78,21.12 856.95,21.12 857.12,21.12C857.29,21.12 857.46,21.12 857.63,21.12C857.8,21.12 857.98,21.12 858.15,21.12C858.32,21.12 858.49,21.12 858.66,21.12C858.83,21.12 859,21.12 859.17,21.12C859.34,21.12 859.51,21.12 859.68,21.12C859.85,21.12 860.02,21.12 860.19,21.12C860.36,21.12 860.53,21.12 860.7,21.12C860.87,21.12 861.04,21.12 861.21,21.12C861.38,21.12 861.55,21.12 861.72,21.12C861.89,21.12 862.06,21.12 862.23,21.12C862.4,21.12 862.57,21.12 862.74,21.12C862.91,21.12 863.08,21.12 863.25,21.12C863.42,21.12 863.59,21.12 863.76,21.12C863.93,21.12 864.1,21.12 864.27,21.12C864.44,21.12 864.61,21.12 864.78,21.12C864.95,21.12 865.12,21.12 865.29,21.12C865.46,21.12 865.63,21.12 865.8,21.12C865.97,21.12 866.14,21.12 866.31,21.12C866.48,21.12 866.65,21.12 866.82,21.12C866.99,21.12 867.16,21.12 867.33,21.12C867.5,21.12 867.67,21.12 867.84,21.12C868.01,21.12 868.18,21.12 868.35,21.12C868.52,21.12 868.69,21.12 868.86,21.12C869.03,21.12 869.2,21.12 869.37,21.12C869.54,21.12 869.71,21.12 869.88,21.12C870.05,21.12 870.22,21.12 870.39,21.12C870.56,21.12 870.73,21.12 870.9,21.12C871.07,21.12 871.24,21.12 871.41,21.12C871.58,21.12 871.75,21.12 871.92,21.12C872.09,21.12 872.26,21.12 872.43,21.12C872.6,21.12 872.77,21.12 872.94,21.12C873.11,21.12 873.28,21.12 873.45,21.12C873.62,21.12 873.79,21.12 873.96,21.12C874.13,21.12 874.3,21.12 874.47,21.12C874.64,21.12 874.81,21.12 874.98,21.12C875.15,21.12 875.32,21.12 875.49,21.12C875.66,21.12 875.83,21.12 876,21.12C876.17,21.12 876.34,21.12 876.51,21.12C876.68,21.12 876.86,21.12 877.03,21.12C877.2,21.12 877.37,21.12 877.54,21.12C877.71,21.12 877.88,21.12 878.05,21.12C878.22,21.12 878.39,21.12 878.56,21.12C878.73,21.12 878.9,21.12 879.07,21.12C879.24,21.12 879.41,21.12 879.58,21.12C879.75,21.12 879.92,21.12 880.09,21.12C880.26,21.12 880.43,21.12 880.6,21.12C880.77,21.12 880.94,21.12 881.11,21.12C881.28,21.12 881.45,21.12 881.62,21.12C881.79,21.12 881.96,21.12 882.13,21.12C882.3,21.12 882.47,21.12 882.64,21.12C882.81,21.12 882.98,21.12 883.15,21.12C883.32,21.12 883.49,21.12 883.66,21.12C883.83,21.12 884,21.12 884.17,21.12C884.34,21.12 884.51,21.12 884.68,21.12C884.85,21.12 885.02,21.12 885.19,21.12C885.36,21.12 885.53,21.12 885.7,21.12C885.87,21.12 886.04,21.12 886.21,21.12C886.38,21.12 886.55,21.12 886.72,21.12C886.89,21.12 887.06,21.12 887.23,21.12C887.4,21.12 887.57,21.12 887.74,21.12C887.91,21.12 888.08,21.12 888.25,21.12C888.42,21.12 888.59,21.12 888.76,21.12C888.93,21.12 889.1,21.12 889.27,21.12C889.44,21.12 889.61,21.12 889.78,21.12C889.95,21.12 890.12,21.12 890.29,21.12C890.46,21.12 890.63,21.12 890.8,21.12C890.97,21.12 891.14,21.12 891.31,21.12C891.48,21.12 891.65,21.12 891.82,21.12C891.99,21.12 892.16,21.12 892.33,21.12C892.5,21.12 892.67,21.12 892.84,21.12C893.01,21.12 893.18,21.12 893.35,21.12C893.52,21.12 893.69,21.12 893.86,21.12C894.03,21.12 894.2,21.12 894.37,21.12C894.54,21.12 894.71,21.12 894.88,21.12C895.05,21.12 895.22,21.12 895.39,21.12C895.56,21.12 895.74,21.12 895.91,21.12C896.08,21.12 896.25,21.12 896.42,21.12C896.59,21.12 896.76,21.12 896.93,21.12C897.1,21.12 897.27,21.12 897.44,21.12C897.61,21.12 897.78,21.12 897.95,21.12C898.12,21.12 898.29,21.12 898.46,21.12C898.63,21.12 898.8,21.12 898.97,21.12C899.14,21.12 899.31,21.12 899.48,21.12C899.65,21.12 899.82,21.12 899.99,21.12C900.16,21.12 900.33,21.12 900.5,21.12C900.67,21.12 900.84,21.12 901.01,21.12C901.18,21.12 901.35,21.12 901.52,21.12C901.69,21.12 901.86,21.12 902.03,21.12C902.2,21.12 902.37,21.12 902.54,21.12C902.71,21.12 902.88,21.12 903.05,21.12C903.22,21.12 903.39,21.12 903.56,21.12C903.73,21.12 903.9,21.12 904.07,21.12C904.24,21.12 904.41,21.12 904.58,21.12C904.75,21.12 904.92,21.12 905.09,21.12C905.26,21.12 905.43,21.12 905.6,21.12C905.77,21.12 905.94,21.12 906.11,21.12C906.28,21.12 906.45,21.12 906.62,21.12C906.79,21.12 906.96,21.12 907.13,21.12C907.3,21.12 907.47,21.12 907.64,21.12C907.81,21.12 907.98,21.12 908.15,21.12C908.32,21.12 908.49,21.12 908.66,21.12C908.83,21.12 909,21.12 909.17,21.12C909.34,21.12 909.51,21.12 909.68,21.12C909.85,21.12 910.02,21.12 910.19,21.12C910.36,21.12 910.53,21.12 910.7,21.12C910.87,21.12 911.04,21.12 911.21,21.12C911.38,21.12 911.55,21.12 911.72,21.12C911.89,21.12 912.06,21.12 912.23,21.12C912.4,21.12 912.57,21.12 912.74,21.12C912.91,21.12 913.08,21.12 913.25,21.12C913.42,21.12 913.59,21.12 913.76,21.12C913.93,21.12 914.1,21.12 914.27,21.12C914.44,21.12 914.62,21.12 914.79,21.12C914.96,21.12 915.13,21.12 915.3,21.12C915.47,21.12 915.64,21.12 915.81,21.12C915.98,21.12 916.15,21.12 916.32,21.12C916.49,21.12 916.66,21.12 916.83,21.12C917,21.12 917.17,21.11 917.34,21.11C917.51,21.11 917.68,21.11 917.85,21.11C918.02,21.11 918.19,21.11 918.36,21.11C918.53,21.11 918.7,21.11 918.87,21.1C919.04,21.09 919.21,21.09 919.38,21.07C919.55,21.05 919.72,21.03 919.89,21C920.06,20.97 920.23,20.93 920.4,20.88C920.57,20.83 920.74,20.76 920.91,20.68C921.08,20.6 921.25,20.5 921.42,20.4C921.59,20.3 921.76,20.17 921.93,20.06C922.1,19.95 922.27,19.82 922.44,19.72C922.61,19.62 922.78,19.53 922.95,19.47C923.12,19.42 923.29,19.38 923.46,19.38C923.63,19.38 923.8,19.42 923.97,19.47C924.14,19.53 924.31,19.62 924.48,19.72C924.65,19.82 924.82,19.95 924.99,20.06C925.16,20.17 925.33,20.3 925.5,20.4C925.67,20.5 925.84,20.6 926.01,20.68C926.18,20.76 926.35,20.83 926.52,20.88C926.69,20.93 926.86,20.97 927.03,21C927.2,21.03 927.37,21.05 927.54,21.07C927.71,21.09 927.88,21.09 928.05,21.1C928.22,21.11 928.39,21.11 928.56,21.11C928.73,21.11 928.9,21.11 929.07,21.11C929.24,21.11 929.41,21.11 929.58,21.11C929.75,21.11 929.92,21.12 930.09,21.12C930.26,21.12 930.43,21.12 930.6,21.12C930.77,21.12 930.94,21.12 931.11,21.12C931.28,21.12 931.45,21.12 931.62,21.12C931.79,21.12 931.96,21.12 932.13,21.12C932.3,21.12 932.47,21.12 932.64,21.12C932.81,21.12 932.98,21.12 933.15,21.12C933.32,21.12 933.5,21.12 933.67,21.12C933.84,21.12 934.01,21.12 934.18,21.12C934.35,21.12 934.52,21.12 934.69,21.12C934.86,21.12 935.03,21.12 935.2,21.12C935.37,21.12 935.54,21.12 935.71,21.12C935.88,21.12 936.05,21.12 936.22,21.12C936.39,21.12 936.56,21.12 936.73,21.12C936.9,21.12 937.07,21.12 937.24,21.12C937.41,21.12 937.58,21.12 937.75,21.12C937.92,21.12 938.09,21.12 938.26,21.12C938.43,21.12 938.6,21.12 938.77,21.12C938.94,21.12 939.11,21.12 939.28,21.12C939.45,21.12 939.62,21.12 939.79,21.12C939.96,21.12 940.13,21.12 940.3,21.12C940.47,21.12 940.64,21.12 940.81,21.12C940.98,21.12 941.15,21.12 941.32,21.12C941.49,21.12 941.66,21.12 941.83,21.12C942,21.12 942.17,21.12 942.34,21.12C942.51,21.12 942.68,21.12 942.85,21.12C943.02,21.12 943.19,21.12 943.36,21.12C943.53,21.12 943.7,21.12 943.87,21.12C944.04,21.12 944.21,21.12 944.38,21.12C944.55,21.12 944.72,21.12 944.89,21.12C945.06,21.12 945.23,21.12 945.4,21.12C945.57,21.12 945.74,21.12 945.91,21.12C946.08,21.12 946.25,21.12 946.42,21.12C946.59,21.12 946.76,21.12 946.93,21.12C947.1,21.12 947.27,21.12 947.44,21.12C947.61,21.12 947.78,21.12 947.95,21.12C948.12,21.12 948.29,21.12 948.46,21.12C948.63,21.12 948.8,21.12 948.97,21.12C949.14,21.12 949.31,21.12 949.48,21.12C949.65,21.12 949.82,21.12 949.99,21.12C950.16,21.12 950.33,21.12 950.5,21.12C950.67,21.12 950.84,21.12 951.01,21.12C951.18,21.12 951.35,21.12 951.52,21.12C951.69,21.12 951.86,21.12 952.03,21.12C952.2,21.12 952.37,21.12 952.54,21.12C952.71,21.12 952.89,21.12 953.06,21.12C953.23,21.12 953.4,21.12 953.57,21.12C953.74,21.12 953.91,21.12 954.08,21.12C954.25,21.12 954.42,21.12 954.59,21.12C954.76,21.12 954.93,21.12 955.1,21.12C955.27,21.12 955.44,21.12 955.61,21.12C955.78,21.12 955.95,21.12 956.12,21.12C956.29,21.12 956.46,21.12 956.63,21.12C956.8,21.12 956.97,21.12 957.14,21.12C957.31,21.12 957.48,21.12 957.65,21.12C957.82,21.12 957.99,21.12 958.16,21.12C958.33,21.12 958.5,21.12 958.67,21.12C958.84,21.12 959.01,21.12 959.18,21.12C959.35,21.12 959.52,21.12 959.69,21.12C959.86,21.12 960.03,21.12 960.2,21.12C960.37,21.12 960.54,21.12 960.71,21.12C960.88,21.12 961.05,21.12 961.22,21.12C961.39,21.12 961.56,21.12 961.73,21.12C961.9,21.12 962.07,21.12 962.24,21.12C962.41,21.12 962.58,21.12 962.75,21.12C962.92,21.12 963.09,21.12 963.26,21.12C963.43,21.12 963.6,21.12 963.77,21.12C963.94,21.12 964.11,21.12 964.28,21.12C964.45,21.12 964.62,21.12 964.79,21.12C964.96,21.12 965.13,21.12 965.3,21.12C965.47,21.12 965.64,21.12 965.81,21.12C965.98,21.12 966.15,21.12 966.32,21.12C966.49,21.12 966.66,21.12 966.83,21.12C967,21.12 967.17,21.12 967.34,21.12C967.51,21.12 967.68,21.12 967.85,21.12C968.02,21.12 968.19,21.12 968.36,21.12C968.53,21.12 968.7,21.12 968.87,21.12C969.04,21.12 969.21,21.12 969.38,21.12C969.55,21.12 969.72,21.12 969.89,21.12C970.06,21.12 970.23,21.12 970.4,21.12C970.57,21.12 970.74,21.12 970.91,21.12C971.08,21.12 971.25,21.12 971.42,21.12C971.59,21.12 971.77,21.12 971.94,21.12C972.11,21.12 972.28,21.12 972.45,21.12C972.62,21.12 972.79,21.12 972.96,21.12C973.13,21.12 973.3,21.12 973.47,21.12C973.64,21.12 973.81,21.12 973.98,21.12C974.15,21.12 974.32,21.12 974.49,21.12C974.66,21.12 974.83,21.12 975,21.12C975.17,21.12 975.34,21.12 975.51,21.12C975.68,21.12 975.85,21.12 976.02,21.12C976.19,21.12 976.36,21.12 976.53,21.12C976.7,21.12 976.87,21.12 977.04,21.12C977.21,21.12 977.38,21.12 977.55,21.12C977.72,21.12 977.89,21.12 978.06,21.12C978.23,21.12 978.4,21.12 978.57,21.12C978.74,21.12 978.91,21.12 979.08,21.12C979.25,21.12 979.42,21.12 979.59,21.12C979.76,21.12 979.93,21.12 980.1,21.12C980.27,21.12 980.44,21.12 980.61,21.12C980.78,21.12 980.95,21.12 981.12,21.12C981.29,21.12 981.46,21.12 981.63,21.12C981.8,21.12 981.97,21.12 982.14,21.12C982.31,21.12 982.48,21.12 982.65,21.12C982.82,21.12 982.99,21.12 983.16,21.12C983.33,21.12 983.5,21.12 983.67,21.12C983.84,21.12 984.01,21.12 984.18,21.12C984.35,21.12 984.52,21.12 984.69,21.12C984.86,21.12 985.03,21.12 985.2,21.12C985.37,21.12 985.54,21.12 985.71,21.12C985.88,21.12 986.05,21.12 986.22,21.12C986.39,21.12 986.56,21.12 986.73,21.12C986.9,21.12 987.07,21.12 987.24,21.12C987.41,21.12 987.58,21.12 987.75,21.12C987.92,21.12 988.09,21.12 988.26,21.12C988.43,21.12 988.6,21.12 988.77,21.12C988.94,21.12 989.11,21.12 989.28,21.12C989.45,21.12 989.62,21.12 989.79,21.12C989.96,21.12 990.13,21.12 990.3,21.12C990.47,21.12 990.65,21.12 990.82,21.12C990.99,21.12 991.16,21.12 991.33,21.12C991.5,21.12 991.67,21.12 991.84,21.12C992.01,21.12 992.18,21.12 992.35,21.12C992.52,21.12 992.69,21.12 992.86,21.12C993.03,21.12 993.2,21.12 993.37,21.12C993.54,21.12 993.71,21.12 993.88,21.12C994.05,21.12 994.22,21.11 994.39,21.11C994.56,21.11 994.73,21.11 994.9,21.11C995.07,21.11 995.24,21.11 995.41,21.11C995.58,21.11 995.75,21.1 995.92,21.09C996.09,21.08 996.26,21.07 996.43,21.06C996.6,21.04 996.77,21.03 996.94,21C997.11,20.97 997.28,20.94 997.45,20.9C997.62,20.86 997.79,20.81 997.96,20.76C998.13,20.71 998.3,20.65 998.47,20.59C998.64,20.53 998.81,20.47 998.98,20.42C999.15,20.37 999.32,20.32 999.49,20.29C999.66,20.26 999.83,20.25 1000,20.25C1000.17,20.25 1000.34,20.26 1000.51,20.29C1000.68,20.32 1000.85,20.37 1001.02,20.42C1001.19,20.47 1001.36,20.53 1001.53,20.59C1001.7,20.65 1001.87,20.71 1002.04,20.76C1002.21,20.81 1002.38,20.86 1002.55,20.9Q1002.72,20.94 1003.06,21L1003.06,21.23Q1002.72,21.29 1002.55,21.33C1002.38,21.37 1002.21,21.42 1002.04,21.47C1001.87,21.52 1001.7,21.58 1001.53,21.64C1001.36,21.7 1001.19,21.76 1001.02,21.81C1000.85,21.86 1000.68,21.91 1000.51,21.94C1000.34,21.97 1000.17,21.98 1000,21.98C999.83,21.98 999.66,21.97 999.49,21.94C999.32,21.91 999.15,21.86 998.98,21.81C998.81,21.76 998.64,21.7 998.47,21.64C998.3,21.58 998.13,21.52 997.96,21.47C997.79,21.42 997.62,21.37 997.45,21.33C997.28,21.29 997.11,21.26 996.94,21.23C996.77,21.2 996.6,21.19 996.43,21.17C996.26,21.16 996.09,21.15 995.92,21.14C995.75,21.13 995.58,21.13 995.41,21.13C995.24,21.13 995.07,21.12 994.9,21.12C994.73,21.12 994.56,21.12 994.39,21.12C994.22,21.12 994.05,21.12 993.88,21.12C993.71,21.12 993.54,21.12 993.37,21.12C993.2,21.12 993.03,21.12 992.86,21.12C992.69,21.12 992.52,21.12 992.35,21.12C992.18,21.12 992.01,21.12 991.84,21.12C991.67,21.12 991.5,21.12 991.33,21.12C991.16,21.12 990.99,21.12 990.82,21.12C990.65,21.12 990.47,21.12 990.3,21.12C990.13,21.12 989.96,21.12 989.79,21.12C989.62,21.12 989.45,21.12 989.28,21.12C989.11,21.12 988.94,21.12 988.77,21.12C988.6,21.12 988.43,21.12 988.26,21.12C988.09,21.12 987.92,21.12 987.75,21.12C987.58,21.12 987.41,21.12 987.24,21.12C987.07,21.12 986.9,21.12 986.73,21.12C986.56,21.12 986.39,21.12 986.22,21.12C986.05,21.12 985.88,21.12 985.71,21.12C985.54,21.12 985.37,21.12 985.2,21.12C985.03,21.12 984.86,21.12 984.69,21.12C984.52,21.12 984.35,21.12 984.18,21.12C984.01,21.12 983.84,21.12 983.67,21.12C983.5,21.12 983.33,21.12 983.16,21.12C982.99,21.12 982.82,21.12 982.65,21.12C982.48,21.12 982.31,21.12 982.14,21.12C981.97,21.12 981.8,21.12 981.63,21.12C981.46,21.12 981.29,21.12 981.12,21.12C980.95,21.12 980.78,21.12 980.61,21.12C980.44,21.12 980.27,21.12 980.1,21.12C979.93,21.12 979.76,21.12 979.59,21.12C979.42,21.12 979.25,21.12 979.08,21.12C978.91,21.12 978.74,21.12 978.57,21.12C978.4,21.12 978.23,21.12 978.06,21.12C977.89,21.12 977.72,21.12 977.55,21.12C977.38,21.12 977.21,21.12 977.04,21.12C976.87,21.12 976.7,21.12 976.53,21.12C976.36,21.12 976.19,21.12 976.02,21.12C975.85,21.12 975.68,21.12 975.51,21.12C975.34,21.12 975.17,21.12 975,21.12C974.83,21.12 974.66,21.12 974.49,21.12C974.32,21.12 974.15,21.12 973.98,21.12C973.81,21.12 973.64,21.12 973.47,21.12C973.3,21.12 973.13,21.12 972.96,21.12C972.79,21.12 972.62,21.12 972.45,21.12C972.28,21.12 972.11,21.12 971.94,21.12C971.77,21.12 971.59,21.12 971.42,21.12C971.25,21.12 971.08,21.12 970.91,21.12C970.74,21.12 970.57,21.12 970.4,21.12C970.23,21.12 970.06,21.12 969.89,21.12C969.72,21.12 969.55,21.12 969.38,21.12C969.21,21.12 969.04,21.12 968.87,21.12C968.7,21.12 968.53,21.12 968.36,21.12C968.19,21.12 968.02,21.12 967.85,21.12C967.68,21.12 967.51,21.12 967.34,21.12C967.17,21.12 967,21.12 966.83,21.12C966.66,21.12 966.49,21.12 966.32,21.12C966.15,21.12 965.98,21.12 965.81,21.12C965.64,21.12 965.47,21.12 965.3,21.12C965.13,21.12 964.96,21.12 964.79,21.12C964.62,21.12 964.45,21.12 964.28,21.12C964.11,21.12 963.94,21.12 963.77,21.12C963.6,21.12 963.43,21.12 963.26,21.12C963.09,21.12 962.92,21.12 962.75,21.12C962.58,21.12 962.41,21.12 962.24,21.12C962.07,21.12 961.9,21.12 961.73,21.12C961.56,21.12 961.39,21.12 961.22,21.12C961.05,21.12 960.88,21.12 960.71,21.12C960.54,21.12 960.37,21.12 960.2,21.12C960.03,21.12 959.86,21.12 959.69,21.12C959.52,21.12 959.35,21.12 959.18,21.12C959.01,21.12 958.84,21.12 958.67,21.12C958.5,21.12 958.33,21.12 958.16,21.12C957.99,21.12 957.82,21.12 957.65,21.12C957.48,21.12 957.31,21.12 957.14,21.12C956.97,21.12 956.8,21.12 956.63,21.12C956.46,21.12 956.29,21.12 956.12,21.12C955.95,21.12 955.78,21.12 955.61,21.12C955.44,21.12 955.27,21.12 955.1,21.12C954.93,21.12 954.76,21.12 954.59,21.12C954.42,21.12 954.25,21.12 954.08,21.12C953.91,21.12 953.74,21.12 953.57,21.12C953.4,21.12 953.23,21.12 953.06,21.12C952.89,21.12 952.71,21.12 952.54,21.12C952.37,21.12 952.2,21.12 952.03,21.12C951.86,21.12 951.69,21.12 951.52,21.12C951.35,21.12 951.18,21.12 951.01,21.12C950.84,21.12 950.67,21.12 950.5,21.12C950.33,21.12 950.16,21.12 949.99,21.12C949.82,21.12 949.65,21.12 949.48,21.12C949.31,21.12 949.14,21.12 948.97,21.12C948.8,21.12 948.63,21.12 948.46,21.12C948.29,21.12 948.12,21.12 947.95,21.12C947.78,21.12 947.61,21.12 947.44,21.12C947.27,21.12 947.1,21.12 946.93,21.12C946.76,21.12 946.59,21.12 946.42,21.12C946.25,21.12 946.08,21.12 945.91,21.12C945.74,21.12 945.57,21.12 945.4,21.12C945.23,21.12 945.06,21.12 944.89,21.12C944.72,21.12 944.55,21.12 944.38,21.12C944.21,21.12 944.04,21.12 943.87,21.12C943.7,21.12 943.53,21.12 943.36,21.12C943.19,21.12 943.02,21.12 942.85,21.12C942.68,21.12 942.51,21.12 942.34,21.12C942.17,21.12 942,21.12 941.83,21.12C941.66,21.12 941.49,21.12 941.32,21.12C941.15,21.12 940.98,21.12 940.81,21.12C940.64,21.12 940.47,21.12 940.3,21.12C940.13,21.12 939.96,21.12 939.79,21.12C939.62,21.12 939.45,21.12 939.28,21.12C939.11,21.12 938.94,21.12 938.77,21.12C938.6,21.12 938.43,21.12 938.26,21.12C938.09,21.12 937.92,21.12 937.75,21.12C937.58,21.12 937.41,21.12 937.24,21.12C937.07,21.12 936.9,21.12 936.73,21.12C936.56,21.12 936.39,21.12 936.22,21.12C936.05,21.12 935.88,21.12 935.71,21.12C935.54,21.12 935.37,21.12 935.2,21.12C935.03,21.12 934.86,21.12 934.69,21.12C934.52,21.12 934.35,21.12 934.18,21.12C934.01,21.12 933.84,21.12 933.67,21.12C933.5,21.12 933.32,21.12 933.15,21.12C932.98,21.12 932.81,21.12 932.64,21.12C932.47,21.12 932.3,21.12 932.13,21.12C931.96,21.12 931.79,21.12 931.62,21.12C931.45,21.12 931.28,21.12 931.11,21.12C930.94,21.12 930.77,21.12 930.6,21.12C930.43,21.12 930.26,21.12 930.09,21.12C929.92,21.12 929.75,21.12 929.58,21.12C929.41,21.12 929.24,21.12 929.07,21.12C928.9,21.12 928.73,21.12 928.56,21.12C928.39,21.12 928.22,21.12 928.05,21.13C927.88,21.14 927.71,21.15 927.54,21.17C927.37,21.19 927.2,21.2 927.03,21.23C926.86,21.26 926.69,21.3 926.52,21.35C926.35,21.4 926.18,21.47 926.01,21.55C925.84,21.63 925.67,21.73 925.5,21.83C925.33,21.93 925.16,22.06 924.99,22.17C924.82,22.28 924.65,22.41 924.48,22.51C924.31,22.61 924.14,22.7 923.97,22.76C923.8,22.81 923.63,22.85 923.46,22.85C923.29,22.85 923.12,22.81 922.95,22.76C922.78,22.7 922.61,22.61 922.44,22.51C922.27,22.41 922.1,22.28 921.93,22.17C921.76,22.06 921.59,21.93 921.42,21.83C921.25,21.73 921.08,21.63 920.91,21.55C920.74,21.47 920.57,21.4 920.4,21.35C920.23,21.3 920.06,21.26 919.89,21.23C919.72,21.2 919.55,21.19 919.38,21.17C919.21,21.15 919.04,21.14 918.87,21.13C918.7,21.12 918.53,21.12 918.36,21.12C918.19,21.12 918.02,21.12 917.85,21.12C917.68,21.12 917.51,21.12 917.34,21.12C917.17,21.12 917,21.12 916.83,21.12C916.66,21.12 916.49,21.12 916.32,21.12C916.15,21.12 915.98,21.12 915.81,21.12C915.64,21.12 915.47,21.12 915.3,21.12C915.13,21.12 914.96,21.12 914.79,21.12C914.62,21.12 914.44,21.12 914.27,21.12C914.1,21.12 913.93,21.12 913.76,21.12C913.59,21.12 913.42,21.12 913.25,21.12C913.08,21.12 912.91,21.12 912.74,21.12C912.57,21.12 912.4,21.12 912.23,21.12C912.06,21.12 911.89,21.12 911.72,21.12C911.55,21.12 911.38,21.12 911.21,21.12C911.04,21.12 910.87,21.12 910.7,21.12C910.53,21.12 910.36,21.12 910.19,21.12C910.02,21.12 909.85,21.12 909.68,21.12C909.51,21.12 909.34,21.12 909.17,21.12C909,21.12 908.83,21.12 908.66,21.12C908.49,21.12 908.32,21.12 908.15,21.12C907.98,21.12 907.81,21.12 907.64,21.12C907.47,21.12 907.3,21.12 907.13,21.12C906.96,21.12 906.79,21.12 906.62,21.12C906.45,21.12 906.28,21.12 906.11,21.12C905.94,21.12 905.77,21.12 905.6,21.12C905.43,21.12 905.26,21.12 905.09,21.12C904.92,21.12 904.75,21.12 904.58,21.12C904.41,21.12 904.24,21.12 904.07,21.12C903.9,21.12 903.73,21.12 903.56,21.12C903.39,21.12 903.22,21.12 903.05,21.12C902.88,21.12 902.71,21.12 902.54,21.12C902.37,21.12 902.2,21.12 902.03,21.12C901.86,21.12 901.69,21.12 901.52,21.12C901.35,21.12 901.18,21.12 901.01,21.12C900.84,21.12 900.67,21.12 900.5,21.12C900.33,21.12 900.16,21.12 899.99,21.12C899.82,21.12 899.65,21.12 899.48,21.12C899.31,21.12 899.14,21.12 898.97,21.12C898.8,21.12 898.63,21.12 898.46,21.12C898.29,21.12 898.12,21.12 897.95,21.12C897.78,21.12 897.61,21.12 897.44,21.12C897.27,21.12 897.1,21.12 896.93,21.12C896.76,21.12 896.59,21.12 896.42,21.12C896.25,21.12 896.08,21.12 895.91,21.12C895.74,21.12 895.56,21.12 895.39,21.12C895.22,21.12 895.05,21.12 894.88,21.12C894.71,21.12 894.54,21.12 894.37,21.12C894.2,21.12 894.03,21.12 893.86,21.12C893.69,21.12 893.52,21.12 893.35,21.12C893.18,21.12 893.01,21.12 892.84,21.12C892.67,21.12 892.5,21.12 892.33,21.12C892.16,21.12 891.99,21.12 891.82,21.12C891.65,21.12 891.48,21.12 891.31,21.12C891.14,21.12 890.97,21.12 890.8,21.12C890.63,21.12 890.46,21.12 890.29,21.12C890.12,21.12 889.95,21.12 889.78,21.12C889.61,21.12 889.44,21.12 889.27,21.12C889.1,21.12 888.93,21.12 888.76,21.12C888.59,21.12 888.42,21.12 888.25,21.12C888.08,21.12 887.91,21.12 887.74,21.12C887.57,21.12 887.4,21.12 887.23,21.12C887.06,21.12 886.89,21.12 886.72,21.12C886.55,21.12 886.38,21.12 886.21,21.12C886.04,21.12 885.87,21.12 885.7,21.12C885.53,21.12 885.36,21.12 885.19,21.12C885.02,21.12 884.85,21.12 884.68,21.12C884.51,21.12 884.34,21.12 884.17,21.12C884,21.12 883.83,21.12 883.66,21.12C883.49,21.12 883.32,21.12 883.15,21.12C882.98,21.12 882.81,21.12 882.64,21.12C882.47,21.12 882.3,21.12 882.13,21.12C881.96,21.12 881.79,21.12 881.62,21.12C881.45,21.12 881.28,21.12 881.11,21.12C880.94,21.12 880.77,21.12 880.6,21.12C880.43,21.12 880.26,21.12 880.09,21.12C879.92,21.12 879.75,21.12 879.58,21.12C879.41,21.12 879.24,21.12 879.07,21.12C878.9,21.12 878.73,21.12 878.56,21.12C878.39,21.12 878.22,21.12 878.05,21.12C877.88,21.12 877.71,21.12 877.54,21.12C877.37,21.12 877.2,21.12 877.03,21.12C876.86,21.12 876.68,21.12 876.51,21.12C876.34,21.12 876.17,21.12 876,21.12C875.83,21.12 875.66,21.12 875.49,21.12C875.32,21.12 875.15,21.12 874.98,21.12C874.81,21.12 874.64,21.12 874.47,21.12C874.3,21.12 874.13,21.12 873.96,21.12C873.79,21.12 873.62,21.12 873.45,21.12C873.28,21.12 873.11,21.12 872.94,21.12C872.77,21.12 872.6,21.12 872.43,21.12C872.26,21.12 872.09,21.12 871.92,21.12C871.75,21.12 871.58,21.12 871.41,21.12C871.24,21.12 871.07,21.12 870.9,21.12C870.73,21.12 870.56,21.12 870.39,21.12C870.22,21.12 870.05,21.12 869.88,21.12C869.71,21.12 869.54,21.12 869.37,21.12C869.2,21.12 869.03,21.12 868.86,21.12C868.69,21.12 868.52,21.12 868.35,21.12C868.18,21.12 868.01,21.12 867.84,21.12C867.67,21.12 867.5,21.12 867.33,21.12C867.16,21.12 866.99,21.12 866.82,21.12C866.65,21.12 866.48,21.12 866.31,21.12C866.14,21.12 865.97,21.12 865.8,21.12C865.63,21.12 865.46,21.12 865.29,21.12C865.12,21.12 864.95,21.12 864.78,21.12C864.61,21.12 864.44,21.12 864.27,21.12C864.1,21.12 863.93,21.12 863.76,21.12C863.59,21.12 863.42,21.12 863.25,21.12C863.08,21.12 862.91,21.12 862.74,21.12C862.57,21.12 862.4,21.12 862.23,21.12C862.06,21.12 861.89,21.12 861.72,21.12C861.55,21.12 861.38,21.12 861.21,21.12C861.04,21.12 860.87,21.12 860.7,21.12C860.53,21.12 860.36,21.12 860.19,21.12C860.02,21.12 859.85,21.12 859.68,21.12C859.51,21.12 859.34,21.12 859.17,21.12C859,21.12 858.83,21.12 858.66,21.12C858.49,21.12 858.32,21.12 858.15,21.12C857.98,21.12 857.8,21.12 857.63,21.12C857.46,21.12 857.29,21.12 857.12,21.12C856.95,21.12 856.78,21.12 856.61,21.12C856.44,21.12 856.27,21.12 856.1,21.12C855.93,21.12 855.76,21.12 855.59,21.12C855.42,21.12 855.25,21.12 855.08,21.12C854.91,21.12 854.74,21.12 854.57,21.12C854.4,21.12 854.23,21.12 854.06,21.12C853.89,21.12 853.72,21.12 853.55,21.12C853.38,21.12 853.21,21.12 853.04,21.12C852.87,21.12 852.7,21.12 852.53,21.13C852.36,21.14 852.19,21.15 852.02,21.17C851.85,21.2 851.68,21.22 851.51,21.28C851.34,21.34 851.16,21.42 851,21.54C850.82,21.68 850.65,21.86 850.49,22.09C850.3,22.37 850.14,22.73 849.98,23.12C849.79,23.61 849.63,24.19 849.47,24.8C849.28,25.52 849.12,26.35 848.96,27.19C848.78,28.11 848.62,29.12 848.45,30.08C848.28,31.04 848.12,32.06 847.94,32.95C847.78,33.72 847.65,34.57 847.43,35.1C847.28,35.45 847.09,35.9 846.92,35.9C846.75,35.9 846.56,35.45 846.41,35.1C846.19,34.57 846.06,33.72 845.9,32.95C845.72,32.06 845.56,31.04 845.39,30.08C845.22,29.12 845.06,28.11 844.88,27.19C844.72,26.35 844.56,25.52 844.37,24.8Q844.21,24.19 843.86,23.12Z" style="vector-effect: none; stroke-width: 2px; stroke: rgb(128, 128, 128); stroke-opacity: 1; fill: rgb(128, 128, 128); fill-opacity: 1;"/><path class="box" d="M846.92,24.81V17.42M846.92,24.81V17.42H846.92V24.81ZM846.92,21.12H846.92M846.92,21.12H846.92" style="vector-effect: non-scaling-stroke; stroke-width: 2px; stroke: rgb(128, 128, 128); stroke-opacity: 1; fill: rgb(128, 128, 128); fill-opacity: 1;"/><path class="mean" d="M862.23,24.81V17.42" style="fill: none; vector-effect: non-scaling-stroke; stroke-width: 2px; stroke-dasharray: 4px, 2px; stroke: rgb(128, 128, 128); stroke-opacity: 1;"/></g></g><g class="scatterlayer mlayer"><g class="trace scatter trace2bba4e" style="stroke-miterlimit: 2; opacity: 1;"><g class="fills"/><g class="errorbars"/><g class="lines"/><g class="points"><path class="point" transform="translate(1000,21.12)" d="M2,0A2,2 0 1,1 0,-2A2,2 0 0,1 2,0Z" style="opacity: 1; stroke-width: 0px; fill: rgb(11, 121, 230); fill-opacity: 1;"/></g><g class="text"/></g><g class="trace scatter trace4a3869" style="stroke-miterlimit: 2; opacity: 1;"><g class="fills"/><g class="errorbars"/><g class="lines"/><g class="points"><path class="point" transform="translate(923.46,21.12)" d="M2,0A2,2 0 1,1 0,-2A2,2 0 0,1 2,0Z" style="opacity: 1; stroke-width: 0px; fill: rgb(11, 121, 230); fill-opacity: 1;"/></g><g class="text"/></g><g class="trace scatter trace32506b" style="stroke-miterlimit: 2; opacity: 1;"><g class="fills"/><g class="errorbars"/><g class="lines"/><g class="points"><path class="point" transform="translate(923.46,21.12)" d="M2,0A2,2 0 1,1 0,-2A2,2 0 0,1 2,0Z" style="opacity: 1; stroke-width: 0px; fill: rgb(11, 121, 230); fill-opacity: 1;"/></g><g class="text"/></g><g class="trace scatter tracec454fb" style="stroke-miterlimit: 2; opacity: 1;"><g class="fills"/><g class="errorbars"/><g class="lines"/><g class="points"><path class="point" transform="translate(846.92,21.12)" d="M2,0A2,2 0 1,1 0,-2A2,2 0 0,1 2,0Z" style="opacity: 1; stroke-width: 0px; fill: rgb(11, 121, 230); fill-opacity: 1;"/></g><g class="text"/></g><g class="trace scatter tracebfa4a6" style="stroke-miterlimit: 2; opacity: 1;"><g class="fills"/><g class="errorbars"/><g class="lines"/><g class="points"><path class="point" transform="translate(846.92,21.12)" d="M2,0A2,2 0 1,1 0,-2A2,2 0 0,1 2,0Z" style="opacity: 1; stroke-width: 0px; fill: rgb(11, 121, 230); fill-opacity: 1;"/></g><g class="text"/></g><g class="trace scatter trace3b37d3" style="stroke-miterlimit: 2; opacity: 1;"><g class="fills"/><g class="errorbars"/><g class="lines"/><g class="points"><path class="point" transform="translate(846.92,21.12)" d="M2,0A2,2 0 1,1 0,-2A2,2 0 0,1 2,0Z" style="opacity: 1; stroke-width: 0px; fill: rgb(11, 121, 230); fill-opacity: 1;"/></g><g class="text"/></g><g class="trace scatter trace8ede13" style="stroke-miterlimit: 2; opacity: 1;"><g class="fills"/><g class="errorbars"/><g class="lines"/><g class="points"><path class="point" transform="translate(846.92,21.12)" d="M2,0A2,2 0 1,1 0,-2A2,2 0 0,1 2,0Z" style="opacity: 1; stroke-width: 0px; fill: rgb(11, 121, 230); fill-opacity: 1;"/></g><g class="text"/></g><g class="trace scatter trace65bc4d" style="stroke-miterlimit: 2; opacity: 1;"><g class="fills"/><g class="errorbars"/><g class="lines"/><g class="points"><path class="point" transform="translate(846.92,21.12)" d="M2,0A2,2 0 1,1 0,-2A2,2 0 0,1 2,0Z" style="opacity: 1; stroke-width: 0px; fill: rgb(11, 121, 230); fill-opacity: 1;"/></g><g class="text"/></g><g class="trace scatter traced04c79" style="stroke-miterlimit: 2; opacity: 1;"><g class="fills"/><g class="errorbars"/><g class="lines"/><g class="points"><path class="point" transform="translate(846.92,21.12)" d="M2,0A2,2 0 1,1 0,-2A2,2 0 0,1 2,0Z" style="opacity: 1; stroke-width: 0px; fill: rgb(11, 121, 230); fill-opacity: 1;"/></g><g class="text"/></g><g class="trace scatter trace565036" style="stroke-miterlimit: 2; opacity: 1;"><g class="fills"/><g class="errorbars"/><g class="lines"/><g class="points"><path class="point" transform="translate(846.92,21.12)" d="M2,0A2,2 0 1,1 0,-2A2,2 0 0,1 2,0Z" style="opacity: 1; stroke-width: 0px; fill: rgb(11, 121, 230); fill-opacity: 1;"/></g><g class="text"/></g><g class="trace scatter traceeaaceb" style="stroke-miterlimit: 2; opacity: 1;"><g class="fills"/><g class="errorbars"/><g class="lines"/><g class="points"><path class="point" transform="translate(846.92,21.12)" d="M2,0A2,2 0 1,1 0,-2A2,2 0 0,1 2,0Z" style="opacity: 1; stroke-width: 0px; fill: rgb(11, 121, 230); fill-opacity: 1;"/></g><g class="text"/></g><g class="trace scatter tracec28a00" style="stroke-miterlimit: 2; opacity: 1;"><g class="fills"/><g class="errorbars"/><g class="lines"/><g class="points"><path class="point" transform="translate(846.92,21.12)" d="M2,0A2,2 0 1,1 0,-2A2,2 0 0,1 2,0Z" style="opacity: 1; stroke-width: 0px; fill: rgb(11, 121, 230); fill-opacity: 1;"/></g><g class="text"/></g><g class="trace scatter trace48ae76" style="stroke-miterlimit: 2; opacity: 1;"><g class="fills"/><g class="errorbars"/><g class="lines"/><g class="points"><path class="point" transform="translate(846.92,21.12)" d="M2,0A2,2 0 1,1 0,-2A2,2 0 0,1 2,0Z" style="opacity: 1; stroke-width: 0px; fill: rgb(11, 121, 230); fill-opacity: 1;"/></g><g class="text"/></g><g class="trace scatter trace341c08" style="stroke-miterlimit: 2; opacity: 1;"><g class="fills"/><g class="errorbars"/><g class="lines"/><g class="points"><path class="point" transform="translate(846.92,21.12)" d="M2,0A2,2 0 1,1 0,-2A2,2 0 0,1 2,0Z" style="opacity: 1; stroke-width: 0px; fill: rgb(11, 121, 230); fill-opacity: 1;"/></g><g class="text"/></g><g class="trace scatter traceff7885" style="stroke-miterlimit: 2; opacity: 1;"><g class="fills"/><g class="errorbars"/><g class="lines"/><g class="points"><path class="point" transform="translate(846.92,21.12)" d="M2,0A2,2 0 1,1 0,-2A2,2 0 0,1 2,0Z" style="opacity: 1; stroke-width: 0px; fill: rgb(11, 121, 230); fill-opacity: 1;"/></g><g class="text"/></g><g class="trace scatter trace93106e" style="stroke-miterlimit: 2; opacity: 1;"><g class="fills"/><g class="errorbars"/><g class="lines"/><g class="points"><path class="point" transform="translate(846.92,21.12)" d="M2,0A2,2 0 1,1 0,-2A2,2 0 0,1 2,0Z" style="opacity: 1; stroke-width: 0px; fill: rgb(11, 121, 230); fill-opacity: 1;"/></g><g class="text"/></g><g class="trace scatter trace5a73e4" style="stroke-miterlimit: 2; opacity: 1;"><g class="fills"/><g class="errorbars"/><g class="lines"/><g class="points"><path class="point" transform="translate(846.92,21.12)" d="M2,0A2,2 0 1,1 0,-2A2,2 0 0,1 2,0Z" style="opacity: 1; stroke-width: 0px; fill: rgb(11, 121, 230); fill-opacity: 1;"/></g><g class="text"/></g><g class="trace scatter traced9eae7" style="stroke-miterlimit: 2; opacity: 1;"><g class="fills"/><g class="errorbars"/><g class="lines"/><g class="points"><path class="point" transform="translate(846.92,21.12)" d="M2,0A2,2 0 1,1 0,-2A2,2 0 0,1 2,0Z" style="opacity: 1; stroke-width: 0px; fill: rgb(11, 121, 230); fill-opacity: 1;"/></g><g class="text"/></g><g class="trace scatter tracef5ec42" style="stroke-miterlimit: 2; opacity: 1;"><g class="fills"/><g class="errorbars"/><g class="lines"/><g class="points"><path class="point" transform="translate(846.92,21.12)" d="M2,0A2,2 0 1,1 0,-2A2,2 0 0,1 2,0Z" style="opacity: 1; stroke-width: 0px; fill: rgb(11, 121, 230); fill-opacity: 1;"/></g><g class="text"/></g><g class="trace scatter tracef5147a" style="stroke-miterlimit: 2; opacity: 1;"><g class="fills"/><g class="errorbars"/><g class="lines"/><g class="points"><path class="point" transform="translate(846.92,21.12)" d="M2,0A2,2 0 1,1 0,-2A2,2 0 0,1 2,0Z" style="opacity: 1; stroke-width: 0px; fill: rgb(11, 121, 230); fill-opacity: 1;"/></g><g class="text"/></g></g></g><g class="overplot"/><path class="xlines-above crisp" d="M0,0" style="fill: none;"/><path class="ylines-above crisp" d="M0,0" style="fill: none;"/><g class="overlines-above"/><g class="xaxislayer-above"><g class="xtick"><text text-anchor="middle" x="0" y="102.23076923076925" transform="translate(84.98,0)" style="font-family: 'Lucida Grande', 'Open Sans', verdana, arial, sans-serif; font-size: 9px; fill: rgb(0, 0, 0); fill-opacity: 0.5; white-space: pre; opacity: 1;">0</text></g><g class="xtick"><text text-anchor="middle" x="0" y="102.23076923076925" style="font-family: 'Lucida Grande', 'Open Sans', verdana, arial, sans-serif; font-size: 9px; fill: rgb(0, 0, 0); fill-opacity: 0.5; white-space: pre; opacity: 1;" transform="translate(238.06,0)">2</text></g><g class="xtick"><text text-anchor="middle" x="0" y="102.23076923076925" style="font-family: 'Lucida Grande', 'Open Sans', verdana, arial, sans-serif; font-size: 9px; fill: rgb(0, 0, 0); fill-opacity: 0.5; white-space: pre; opacity: 1;" transform="translate(391.14,0)">4</text></g><g class="xtick"><text text-anchor="middle" x="0" y="102.23076923076925" style="font-family: 'Lucida Grande', 'Open Sans', verdana, arial, sans-serif; font-size: 9px; fill: rgb(0, 0, 0); fill-opacity: 0.5; white-space: pre; opacity: 1;" transform="translate(544.22,0)">6</text></g><g class="xtick"><text text-anchor="middle" x="0" y="102.23076923076925" style="font-family: 'Lucida Grande', 'Open Sans', verdana, arial, sans-serif; font-size: 9px; fill: rgb(0, 0, 0); fill-opacity: 0.5; white-space: pre; opacity: 1;" transform="translate(697.3,0)">8</text></g><g class="xtick"><text text-anchor="middle" x="0" y="102.23076923076925" style="font-family: 'Lucida Grande', 'Open Sans', verdana, arial, sans-serif; font-size: 9px; fill: rgb(0, 0, 0); fill-opacity: 0.5; white-space: pre; opacity: 1;" transform="translate(850.38,0)">10</text></g><g class="xtick"><text text-anchor="middle" x="0" y="102.23076923076925" style="font-family: 'Lucida Grande', 'Open Sans', verdana, arial, sans-serif; font-size: 9px; fill: rgb(0, 0, 0); fill-opacity: 0.5; white-space: pre; opacity: 1;" transform="translate(1003.46,0)">12</text></g></g><g class="yaxislayer-above"><g class="ytick"><text text-anchor="end" x="79" y="3.15" transform="translate(0,71.12000000000002)" style="font-family: 'Lucida Grande', 'Open Sans', verdana, arial, sans-serif; font-size: 9px; fill: rgb(0, 0, 0); fill-opacity: 0.5; white-space: pre; opacity: 1;">Samples  </text></g></g><g class="overaxes-above"/></g><g class="subplot x2y2"><g class="layer-subplot"><g class="shapelayer"/><g class="imagelayer"/></g><g class="minor-gridlayer"><g class="x2"/><g class="y2"/></g><g class="gridlayer"><g class="x2"><path class="x2grid crisp" transform="translate(196.45999999999998,0)" d="M0,120.3846153846154v42.230769230769226" style="stroke: rgb(0, 0, 0); stroke-opacity: 0.1; stroke-width: 1px;"/><path class="x2grid crisp" transform="translate(307.95,0)" d="M0,120.3846153846154v42.230769230769226" style="stroke: rgb(0, 0, 0); stroke-opacity: 0.1; stroke-width: 1px;"/><path class="x2grid crisp" transform="translate(419.43,0)" d="M0,120.3846153846154v42.230769230769226" style="stroke: rgb(0, 0, 0); stroke-opacity: 0.1; stroke-width: 1px;"/><path class="x2grid crisp" transform="translate(530.9200000000001,0)" d="M0,120.3846153846154v42.230769230769226" style="stroke: rgb(0, 0, 0); stroke-opacity: 0.1; stroke-width: 1px;"/><path class="x2grid crisp" transform="translate(642.4,0)" d="M0,120.3846153846154v42.230769230769226" style="stroke: rgb(0, 0, 0); stroke-opacity: 0.1; stroke-width: 1px;"/><path class="x2grid crisp" transform="translate(753.89,0)" d="M0,120.3846153846154v42.230769230769226" style="stroke: rgb(0, 0, 0); stroke-opacity: 0.1; stroke-width: 1px;"/><path class="x2grid crisp" transform="translate(865.37,0)" d="M0,120.3846153846154v42.230769230769226" style="stroke: rgb(0, 0, 0); stroke-opacity: 0.1; stroke-width: 1px;"/><path class="x2grid crisp" transform="translate(976.86,0)" d="M0,120.3846153846154v42.230769230769226" style="stroke: rgb(0, 0, 0); stroke-opacity: 0.1; stroke-width: 1px;"/></g><g class="y2"><path class="y2grid crisp" transform="translate(0,141.5046153846154)" d="M80,0h1005" style="stroke: rgb(0, 0, 0); stroke-opacity: 0.1; stroke-width: 1px;"/></g></g><g class="zerolinelayer"><path class="x2zl zl crisp" transform="translate(84.98,0)" d="M0,120.3846153846154v42.230769230769226" style="stroke: rgb(0, 0, 0); stroke-opacity: 0.1; stroke-width: 2px;"/></g><path class="xlines-below"/><path class="ylines-below"/><g class="overlines-below"/><g class="xaxislayer-below"/><g class="yaxislayer-below"/><g class="overaxes-below"/><g class="plot" transform="translate(80,120.3846153846154)" clip-path="url(#clip6fd7dcx2y2plot)"><g class="violinlayer mlayer"><g class="trace violins" style="opacity: 0.5;"><path class="violin" d="M-15.92,20.32Q-12.59,19.85 -10.94,19.48C-9.27,19.11 -7.6,18.65 -5.96,18.09C-4.28,17.51 -2.62,16.81 -0.98,16.05C0.7,15.27 2.35,14.36 4,13.47C5.67,12.57 7.32,11.56 8.99,10.68C10.64,9.81 12.28,8.9 13.97,8.22C15.61,7.56 17.27,6.96 18.95,6.65C20.59,6.34 22.28,6.23 23.93,6.33C25.6,6.44 27.27,6.82 28.91,7.29C30.59,7.77 32.24,8.5 33.89,9.21C35.56,9.93 37.21,10.79 38.87,11.57C40.53,12.35 42.18,13.18 43.85,13.9C45.5,14.61 47.16,15.29 48.83,15.87C50.48,16.44 52.14,16.93 53.81,17.35C55.46,17.76 57.13,18.08 58.79,18.36C60.45,18.64 62.11,18.85 63.77,19.04C65.43,19.23 67.09,19.38 68.75,19.52C70.41,19.66 72.07,19.78 73.73,19.9C75.39,20.02 77.05,20.12 78.71,20.22C80.37,20.32 82.03,20.42 83.69,20.5C85.35,20.58 87.01,20.65 88.67,20.71C90.33,20.77 91.99,20.82 93.65,20.85C95.31,20.88 96.97,20.91 98.63,20.91C100.29,20.91 101.95,20.89 103.61,20.87C105.27,20.84 106.93,20.81 108.59,20.76C110.25,20.71 111.91,20.65 113.57,20.58C115.23,20.51 116.89,20.43 118.55,20.36C120.21,20.29 121.87,20.22 123.53,20.16C125.19,20.1 126.86,20.05 128.52,20.02C130.18,19.99 131.84,19.97 133.5,19.97C135.16,19.97 136.82,19.99 138.48,20.01C140.14,20.03 141.8,20.07 143.46,20.09C145.12,20.11 146.78,20.14 148.44,20.15C150.1,20.16 151.76,20.16 153.42,20.15C155.08,20.14 156.74,20.11 158.4,20.09C160.06,20.07 161.72,20.03 163.38,20.01C165.04,19.99 166.7,19.97 168.36,19.97C170.02,19.97 171.68,19.99 173.34,20.02C175,20.05 176.66,20.1 178.32,20.16C179.98,20.22 181.64,20.29 183.3,20.36C184.96,20.43 186.62,20.51 188.28,20.58C189.94,20.65 191.6,20.72 193.26,20.78C194.92,20.84 196.58,20.88 198.24,20.92C199.9,20.96 201.56,20.99 203.22,21.02C204.88,21.04 206.54,21.06 208.2,21.07C209.86,21.08 211.52,21.09 213.18,21.1C214.84,21.11 216.5,21.11 218.16,21.11C219.82,21.11 221.48,21.11 223.14,21.11C224.8,21.11 226.46,21.11 228.12,21.11C229.78,21.11 231.44,21.12 233.1,21.12C234.76,21.12 236.42,21.12 238.08,21.12C239.74,21.12 241.4,21.12 243.06,21.12C244.72,21.12 246.38,21.12 248.04,21.12C249.7,21.12 251.37,21.11 253.03,21.11C254.69,21.11 256.35,21.11 258.01,21.11C259.67,21.11 261.33,21.11 262.99,21.11C264.65,21.11 266.31,21.11 267.97,21.1C269.63,21.09 271.29,21.08 272.95,21.07C274.61,21.06 276.27,21.05 277.93,21.03C279.59,21.01 281.25,20.98 282.91,20.94C284.57,20.9 286.23,20.85 287.89,20.8C289.55,20.74 291.21,20.68 292.87,20.61C294.53,20.54 296.19,20.46 297.85,20.39C299.51,20.32 301.17,20.24 302.83,20.18C304.49,20.12 306.15,20.08 307.81,20.05C309.47,20.02 311.13,20.01 312.79,20.02C314.45,20.03 316.11,20.07 317.77,20.11C319.43,20.16 321.09,20.22 322.75,20.29C324.41,20.36 326.07,20.44 327.73,20.51C329.39,20.58 331.05,20.65 332.71,20.71C334.37,20.77 336.03,20.83 337.69,20.88C339.35,20.93 341.01,20.96 342.67,20.99C344.33,21.02 345.99,21.04 347.65,21.06C349.31,21.08 350.97,21.08 352.63,21.09C354.29,21.1 355.95,21.11 357.61,21.11C359.27,21.11 360.93,21.11 362.59,21.11C364.25,21.11 365.91,21.11 367.57,21.11C369.23,21.11 370.89,21.12 372.55,21.12C374.21,21.12 375.88,21.12 377.54,21.12C379.2,21.12 380.86,21.12 382.52,21.12C384.18,21.12 385.84,21.12 387.5,21.12C389.16,21.12 390.82,21.12 392.48,21.12C394.14,21.12 395.8,21.12 397.46,21.12C399.12,21.12 400.78,21.12 402.44,21.12C404.1,21.12 405.76,21.12 407.42,21.12C409.08,21.12 410.74,21.12 412.4,21.12C414.06,21.12 415.72,21.12 417.38,21.12C419.04,21.12 420.7,21.12 422.36,21.12C424.02,21.12 425.68,21.12 427.34,21.12C429,21.12 430.66,21.12 432.32,21.12C433.98,21.12 435.64,21.12 437.3,21.12C438.96,21.12 440.62,21.12 442.28,21.12C443.94,21.12 445.6,21.12 447.26,21.12C448.92,21.12 450.58,21.12 452.24,21.12C453.9,21.12 455.56,21.12 457.22,21.12C458.88,21.12 460.54,21.12 462.2,21.12C463.86,21.12 465.52,21.12 467.18,21.12C468.84,21.12 470.5,21.12 472.16,21.12C473.82,21.12 475.48,21.12 477.14,21.12C478.8,21.12 480.46,21.12 482.12,21.12C483.78,21.12 485.44,21.12 487.1,21.12C488.76,21.12 490.42,21.12 492.08,21.12C493.74,21.12 495.4,21.12 497.06,21.12C498.72,21.12 500.39,21.12 502.05,21.12C503.71,21.12 505.37,21.12 507.03,21.12C508.69,21.12 510.35,21.12 512.01,21.12C513.67,21.12 515.33,21.12 516.99,21.12C518.65,21.12 520.31,21.12 521.97,21.12C523.63,21.12 525.29,21.12 526.95,21.12C528.61,21.12 530.27,21.12 531.93,21.12C533.59,21.12 535.25,21.12 536.91,21.12C538.57,21.12 540.23,21.12 541.89,21.12C543.55,21.12 545.21,21.12 546.87,21.12C548.53,21.12 550.19,21.12 551.85,21.12C553.51,21.12 555.17,21.12 556.83,21.12C558.49,21.12 560.15,21.12 561.81,21.12C563.47,21.12 565.13,21.12 566.79,21.12C568.45,21.12 570.11,21.12 571.77,21.12C573.43,21.12 575.09,21.12 576.75,21.12C578.41,21.12 580.07,21.12 581.73,21.12C583.39,21.12 585.05,21.12 586.71,21.12C588.37,21.12 590.03,21.12 591.69,21.12C593.35,21.12 595.01,21.12 596.67,21.12C598.33,21.12 599.99,21.12 601.65,21.12C603.31,21.12 604.97,21.12 606.63,21.12C608.29,21.12 609.95,21.12 611.61,21.12C613.27,21.12 614.93,21.12 616.59,21.12C618.25,21.12 619.91,21.12 621.57,21.12C623.23,21.12 624.9,21.12 626.56,21.12C628.22,21.12 629.88,21.12 631.54,21.12C633.2,21.12 634.86,21.12 636.52,21.12C638.18,21.12 639.84,21.12 641.5,21.12C643.16,21.12 644.82,21.12 646.48,21.12C648.14,21.12 649.8,21.12 651.46,21.12C653.12,21.12 654.78,21.12 656.44,21.12C658.1,21.12 659.76,21.12 661.42,21.12C663.08,21.12 664.74,21.12 666.4,21.12C668.06,21.12 669.72,21.12 671.38,21.12C673.04,21.12 674.7,21.12 676.36,21.12C678.02,21.12 679.68,21.12 681.34,21.12C683,21.12 684.66,21.12 686.32,21.12C687.98,21.12 689.64,21.12 691.3,21.12C692.96,21.12 694.62,21.12 696.28,21.12C697.94,21.12 699.6,21.12 701.26,21.12C702.92,21.12 704.58,21.12 706.24,21.12C707.9,21.12 709.56,21.12 711.22,21.12C712.88,21.12 714.54,21.12 716.2,21.12C717.86,21.12 719.52,21.12 721.18,21.12C722.84,21.12 724.5,21.12 726.16,21.12C727.82,21.12 729.48,21.12 731.14,21.12C732.8,21.12 734.46,21.12 736.12,21.12C737.78,21.12 739.44,21.12 741.1,21.12C742.76,21.12 744.42,21.12 746.08,21.12C747.74,21.12 749.41,21.12 751.07,21.12C752.73,21.12 754.39,21.12 756.05,21.12C757.71,21.12 759.37,21.12 761.03,21.12C762.69,21.12 764.35,21.12 766.01,21.12C767.67,21.12 769.33,21.12 770.99,21.12C772.65,21.12 774.31,21.12 775.97,21.12C777.63,21.12 779.29,21.12 780.95,21.12C782.61,21.12 784.27,21.12 785.93,21.12C787.59,21.12 789.25,21.12 790.91,21.12C792.57,21.12 794.23,21.12 795.89,21.12C797.55,21.12 799.21,21.12 800.87,21.12C802.53,21.12 804.19,21.12 805.85,21.12C807.51,21.12 809.17,21.12 810.83,21.12C812.49,21.12 814.15,21.12 815.81,21.12C817.47,21.12 819.13,21.12 820.79,21.12C822.45,21.12 824.11,21.12 825.77,21.12C827.43,21.12 829.09,21.12 830.75,21.12C832.41,21.12 834.07,21.12 835.73,21.12C837.39,21.12 839.05,21.12 840.71,21.12C842.37,21.12 844.03,21.12 845.69,21.12C847.35,21.12 849.01,21.12 850.67,21.12C852.33,21.12 853.99,21.12 855.65,21.12C857.31,21.12 858.97,21.12 860.63,21.12C862.29,21.12 863.95,21.12 865.61,21.12C867.27,21.12 868.93,21.12 870.59,21.12C872.25,21.12 873.92,21.12 875.58,21.12C877.24,21.12 878.9,21.12 880.56,21.12C882.22,21.12 883.88,21.12 885.54,21.12C887.2,21.12 888.86,21.12 890.52,21.12C892.18,21.12 893.84,21.12 895.5,21.12C897.16,21.12 898.82,21.12 900.48,21.12C902.14,21.12 903.8,21.12 905.46,21.12C907.12,21.12 908.78,21.12 910.44,21.12C912.1,21.12 913.76,21.12 915.42,21.12C917.08,21.12 918.74,21.12 920.4,21.12C922.06,21.12 923.72,21.12 925.38,21.12C927.04,21.12 928.7,21.12 930.36,21.12C932.02,21.12 933.68,21.12 935.34,21.12C937,21.12 938.66,21.11 940.32,21.11C941.98,21.11 943.64,21.11 945.3,21.11C946.96,21.11 948.62,21.11 950.28,21.11C951.94,21.11 953.6,21.1 955.26,21.1C956.92,21.09 958.58,21.09 960.24,21.08C961.9,21.07 963.56,21.06 965.22,21.04C966.88,21.02 968.54,20.99 970.2,20.96C971.86,20.93 973.52,20.89 975.18,20.84C976.84,20.79 978.5,20.73 980.16,20.66C981.82,20.59 983.48,20.51 985.14,20.44C986.8,20.37 988.46,20.29 990.12,20.23C991.78,20.17 993.44,20.11 995.1,20.07C996.76,20.03 998.43,20.02 1000.09,20.02C1001.75,20.02 1003.41,20.04 1005.07,20.08C1006.73,20.12 1008.39,20.18 1010.05,20.24C1011.71,20.3 1013.37,20.38 1015.03,20.45C1016.69,20.52 1018.35,20.59 1020.01,20.66C1021.67,20.72 1023.33,20.79 1024.99,20.84Q1026.65,20.89 1029.97,20.97L1029.97,21.26Q1026.65,21.34 1024.99,21.39C1023.33,21.44 1021.67,21.51 1020.01,21.57C1018.35,21.64 1016.69,21.71 1015.03,21.78C1013.37,21.85 1011.71,21.93 1010.05,21.99C1008.39,22.05 1006.73,22.11 1005.07,22.15C1003.41,22.19 1001.75,22.22 1000.09,22.22C998.43,22.22 996.76,22.2 995.1,22.16C993.44,22.12 991.78,22.06 990.12,22C988.46,21.94 986.8,21.86 985.14,21.79C983.48,21.72 981.82,21.64 980.16,21.57C978.5,21.5 976.84,21.44 975.18,21.39C973.52,21.34 971.86,21.3 970.2,21.27C968.54,21.24 966.88,21.21 965.22,21.19C963.56,21.17 961.9,21.16 960.24,21.15C958.58,21.14 956.92,21.14 955.26,21.13C953.6,21.13 951.94,21.12 950.28,21.12C948.62,21.12 946.96,21.12 945.3,21.12C943.64,21.12 941.98,21.12 940.32,21.12C938.66,21.12 937,21.12 935.34,21.12C933.68,21.12 932.02,21.12 930.36,21.12C928.7,21.12 927.04,21.12 925.38,21.12C923.72,21.12 922.06,21.12 920.4,21.12C918.74,21.12 917.08,21.12 915.42,21.12C913.76,21.12 912.1,21.12 910.44,21.12C908.78,21.12 907.12,21.12 905.46,21.12C903.8,21.12 902.14,21.12 900.48,21.12C898.82,21.12 897.16,21.12 895.5,21.12C893.84,21.12 892.18,21.12 890.52,21.12C888.86,21.12 887.2,21.12 885.54,21.12C883.88,21.12 882.22,21.12 880.56,21.12C878.9,21.12 877.24,21.12 875.58,21.12C873.92,21.12 872.25,21.12 870.59,21.12C868.93,21.12 867.27,21.12 865.61,21.12C863.95,21.12 862.29,21.12 860.63,21.12C858.97,21.12 857.31,21.12 855.65,21.12C853.99,21.12 852.33,21.12 850.67,21.12C849.01,21.12 847.35,21.12 845.69,21.12C844.03,21.12 842.37,21.12 840.71,21.12C839.05,21.12 837.39,21.12 835.73,21.12C834.07,21.12 832.41,21.12 830.75,21.12C829.09,21.12 827.43,21.12 825.77,21.12C824.11,21.12 822.45,21.12 820.79,21.12C819.13,21.12 817.47,21.12 815.81,21.12C814.15,21.12 812.49,21.12 810.83,21.12C809.17,21.12 807.51,21.12 805.85,21.12C804.19,21.12 802.53,21.12 800.87,21.12C799.21,21.12 797.55,21.12 795.89,21.12C794.23,21.12 792.57,21.12 790.91,21.12C789.25,21.12 787.59,21.12 785.93,21.12C784.27,21.12 782.61,21.12 780.95,21.12C779.29,21.12 777.63,21.12 775.97,21.12C774.31,21.12 772.65,21.12 770.99,21.12C769.33,21.12 767.67,21.12 766.01,21.12C764.35,21.12 762.69,21.12 761.03,21.12C759.37,21.12 757.71,21.12 756.05,21.12C754.39,21.12 752.73,21.12 751.07,21.12C749.41,21.12 747.74,21.12 746.08,21.12C744.42,21.12 742.76,21.12 741.1,21.12C739.44,21.12 737.78,21.12 736.12,21.12C734.46,21.12 732.8,21.12 731.14,21.12C729.48,21.12 727.82,21.12 726.16,21.12C724.5,21.12 722.84,21.12 721.18,21.12C719.52,21.12 717.86,21.12 716.2,21.12C714.54,21.12 712.88,21.12 711.22,21.12C709.56,21.12 707.9,21.12 706.24,21.12C704.58,21.12 702.92,21.12 701.26,21.12C699.6,21.12 697.94,21.12 696.28,21.12C694.62,21.12 692.96,21.12 691.3,21.12C689.64,21.12 687.98,21.12 686.32,21.12C684.66,21.12 683,21.12 681.34,21.12C679.68,21.12 678.02,21.12 676.36,21.12C674.7,21.12 673.04,21.12 671.38,21.12C669.72,21.12 668.06,21.12 666.4,21.12C664.74,21.12 663.08,21.12 661.42,21.12C659.76,21.12 658.1,21.12 656.44,21.12C654.78,21.12 653.12,21.12 651.46,21.12C649.8,21.12 648.14,21.12 646.48,21.12C644.82,21.12 643.16,21.12 641.5,21.12C639.84,21.12 638.18,21.12 636.52,21.12C634.86,21.12 633.2,21.12 631.54,21.12C629.88,21.12 628.22,21.12 626.56,21.12C624.9,21.12 623.23,21.12 621.57,21.12C619.91,21.12 618.25,21.12 616.59,21.12C614.93,21.12 613.27,21.12 611.61,21.12C609.95,21.12 608.29,21.12 606.63,21.12C604.97,21.12 603.31,21.12 601.65,21.12C599.99,21.12 598.33,21.12 596.67,21.12C595.01,21.12 593.35,21.12 591.69,21.12C590.03,21.12 588.37,21.12 586.71,21.12C585.05,21.12 583.39,21.12 581.73,21.12C580.07,21.12 578.41,21.12 576.75,21.12C575.09,21.12 573.43,21.12 571.77,21.12C570.11,21.12 568.45,21.12 566.79,21.12C565.13,21.12 563.47,21.12 561.81,21.12C560.15,21.12 558.49,21.12 556.83,21.12C555.17,21.12 553.51,21.12 551.85,21.12C550.19,21.12 548.53,21.12 546.87,21.12C545.21,21.12 543.55,21.12 541.89,21.12C540.23,21.12 538.57,21.12 536.91,21.12C535.25,21.12 533.59,21.12 531.93,21.12C530.27,21.12 528.61,21.12 526.95,21.12C525.29,21.12 523.63,21.12 521.97,21.12C520.31,21.12 518.65,21.12 516.99,21.12C515.33,21.12 513.67,21.12 512.01,21.12C510.35,21.12 508.69,21.12 507.03,21.12C505.37,21.12 503.71,21.12 502.05,21.12C500.39,21.12 498.72,21.12 497.06,21.12C495.4,21.12 493.74,21.12 492.08,21.12C490.42,21.12 488.76,21.12 487.1,21.12C485.44,21.12 483.78,21.12 482.12,21.12C480.46,21.12 478.8,21.12 477.14,21.12C475.48,21.12 473.82,21.12 472.16,21.12C470.5,21.12 468.84,21.12 467.18,21.12C465.52,21.12 463.86,21.12 462.2,21.12C460.54,21.12 458.88,21.12 457.22,21.12C455.56,21.12 453.9,21.12 452.24,21.12C450.58,21.12 448.92,21.12 447.26,21.12C445.6,21.12 443.94,21.12 442.28,21.12C440.62,21.12 438.96,21.12 437.3,21.12C435.64,21.12 433.98,21.12 432.32,21.12C430.66,21.12 429,21.12 427.34,21.12C425.68,21.12 424.02,21.12 422.36,21.12C420.7,21.12 419.04,21.12 417.38,21.12C415.72,21.12 414.06,21.12 412.4,21.12C410.74,21.12 409.08,21.12 407.42,21.12C405.76,21.12 404.1,21.12 402.44,21.12C400.78,21.12 399.12,21.12 397.46,21.12C395.8,21.12 394.14,21.12 392.48,21.12C390.82,21.12 389.16,21.12 387.5,21.12C385.84,21.12 384.18,21.12 382.52,21.12C380.86,21.12 379.2,21.12 377.54,21.12C375.88,21.12 374.21,21.12 372.55,21.12C370.89,21.12 369.23,21.12 367.57,21.12C365.91,21.12 364.25,21.12 362.59,21.12C360.93,21.12 359.27,21.12 357.61,21.12C355.95,21.12 354.29,21.13 352.63,21.14C350.97,21.15 349.31,21.15 347.65,21.17C345.99,21.19 344.33,21.21 342.67,21.24C341.01,21.27 339.35,21.3 337.69,21.35C336.03,21.4 334.37,21.46 332.71,21.52C331.05,21.58 329.39,21.65 327.73,21.72C326.07,21.79 324.41,21.87 322.75,21.94C321.09,22.01 319.43,22.07 317.77,22.12C316.11,22.16 314.45,22.2 312.79,22.21C311.13,22.22 309.47,22.21 307.81,22.18C306.15,22.15 304.49,22.11 302.83,22.05C301.17,21.99 299.51,21.91 297.85,21.84C296.19,21.77 294.53,21.7 292.87,21.63C291.21,21.56 289.55,21.5 287.89,21.44C286.23,21.38 284.57,21.33 282.91,21.29C281.25,21.25 279.59,21.23 277.93,21.21C276.27,21.19 274.61,21.17 272.95,21.16C271.29,21.15 269.63,21.14 267.97,21.13C266.31,21.12 264.65,21.12 262.99,21.12C261.33,21.12 259.67,21.12 258.01,21.12C256.35,21.12 254.69,21.12 253.03,21.12C251.37,21.12 249.7,21.12 248.04,21.12C246.38,21.12 244.72,21.12 243.06,21.12C241.4,21.12 239.74,21.12 238.08,21.12C236.42,21.12 234.76,21.12 233.1,21.12C231.44,21.12 229.78,21.12 228.12,21.12C226.46,21.12 224.8,21.12 223.14,21.12C221.48,21.12 219.82,21.12 218.16,21.12C216.5,21.12 214.84,21.12 213.18,21.13C211.52,21.14 209.86,21.15 208.2,21.16C206.54,21.17 204.88,21.19 203.22,21.21C201.56,21.24 199.9,21.27 198.24,21.31C196.58,21.35 194.92,21.39 193.26,21.45C191.6,21.51 189.94,21.58 188.28,21.65C186.62,21.72 184.96,21.8 183.3,21.87C181.64,21.94 179.98,22.01 178.32,22.07C176.66,22.13 175,22.18 173.34,22.21C171.68,22.24 170.02,22.26 168.36,22.26C166.7,22.26 165.04,22.24 163.38,22.22C161.72,22.2 160.06,22.17 158.4,22.15C156.74,22.13 155.08,22.1 153.42,22.09C151.76,22.08 150.1,22.08 148.44,22.09C146.78,22.1 145.12,22.13 143.46,22.15C141.8,22.17 140.14,22.2 138.48,22.22C136.82,22.24 135.16,22.26 133.5,22.26C131.84,22.26 130.18,22.24 128.52,22.21C126.86,22.18 125.19,22.13 123.53,22.07C121.87,22.01 120.21,21.94 118.55,21.87C116.89,21.8 115.23,21.73 113.57,21.66C111.91,21.59 110.25,21.52 108.59,21.47C106.93,21.42 105.27,21.39 103.61,21.36C101.95,21.34 100.29,21.32 98.63,21.32C96.97,21.32 95.31,21.35 93.65,21.38C91.99,21.41 90.33,21.46 88.67,21.52C87.01,21.58 85.35,21.65 83.69,21.73C82.03,21.81 80.37,21.91 78.71,22.01C77.05,22.11 75.39,22.22 73.73,22.34C72.07,22.46 70.41,22.57 68.75,22.71C67.09,22.85 65.43,23 63.77,23.19C62.11,23.38 60.45,23.59 58.79,23.87C57.13,24.15 55.46,24.47 53.81,24.88C52.14,25.3 50.48,25.79 48.83,26.36C47.16,26.94 45.5,27.62 43.85,28.33C42.18,29.05 40.53,29.88 38.87,30.66C37.21,31.44 35.56,32.31 33.89,33.03C32.24,33.74 30.59,34.46 28.91,34.94C27.27,35.41 25.6,35.79 23.93,35.9C22.28,36 20.59,35.89 18.95,35.58C17.27,35.27 15.61,34.67 13.97,34.01C12.28,33.33 10.64,32.42 8.99,31.55C7.32,30.67 5.67,29.66 4,28.76C2.35,27.87 0.7,26.96 -0.98,26.18C-2.62,25.42 -4.28,24.72 -5.96,24.14C-7.6,23.58 -9.27,23.12 -10.94,22.75Q-12.59,22.38 -15.92,21.91Z" style="vector-effect: none; stroke-width: 2px; stroke: rgb(128, 128, 128); stroke-opacity: 1; fill: rgb(128, 128, 128); fill-opacity: 1;"/><path class="box" d="M23.41,24.81V17.42M19.51,24.81V17.42H54.25V24.81ZM19.51,21.12H14.05M54.25,21.12H66.52" style="vector-effect: non-scaling-stroke; stroke-width: 2px; stroke: rgb(128, 128, 128); stroke-opacity: 1; fill: rgb(128, 128, 128); fill-opacity: 1;"/><path class="mean" d="M101.79,24.81V17.42" style="fill: none; vector-effect: non-scaling-stroke; stroke-width: 2px; stroke-dasharray: 4px, 2px; stroke: rgb(128, 128, 128); stroke-opacity: 1;"/></g></g><g class="scatterlayer mlayer"><g class="trace scatter trace99da49" style="stroke-miterlimit: 2; opacity: 1;"><g class="fills"/><g class="errorbars"/><g class="lines"/><g class="points"><path class="point" transform="translate(14.05,21.12)" d="M2,0A2,2 0 1,1 0,-2A2,2 0 0,1 2,0Z" style="opacity: 1; stroke-width: 0px; fill: rgb(11, 121, 230); fill-opacity: 1;"/></g><g class="text"/></g><g class="trace scatter tracea178b5" style="stroke-miterlimit: 2; opacity: 1;"><g class="fills"/><g class="errorbars"/><g class="lines"/><g class="points"><path class="point" transform="translate(311.44,21.12)" d="M2,0A2,2 0 1,1 0,-2A2,2 0 0,1 2,0Z" style="opacity: 1; stroke-width: 0px; fill: rgb(11, 121, 230); fill-opacity: 1;"/></g><g class="text"/></g><g class="trace scatter traceb20a28" style="stroke-miterlimit: 2; opacity: 1;"><g class="fills"/><g class="errorbars"/><g class="lines"/><g class="points"><path class="point" transform="translate(23.9,21.12)" d="M2,0A2,2 0 1,1 0,-2A2,2 0 0,1 2,0Z" style="opacity: 1; stroke-width: 0px; fill: rgb(11, 121, 230); fill-opacity: 1;"/></g><g class="text"/></g><g class="trace scatter tracec4bf00" style="stroke-miterlimit: 2; opacity: 1;"><g class="fills"/><g class="errorbars"/><g class="lines"/><g class="points"><path class="point" transform="translate(1000,21.12)" d="M2,0A2,2 0 1,1 0,-2A2,2 0 0,1 2,0Z" style="opacity: 1; stroke-width: 0px; fill: rgb(11, 121, 230); fill-opacity: 1;"/></g><g class="text"/></g><g class="trace scatter trace2fd5e2" style="stroke-miterlimit: 2; opacity: 1;"><g class="fills"/><g class="errorbars"/><g class="lines"/><g class="points"><path class="point" transform="translate(170.21,21.12)" d="M2,0A2,2 0 1,1 0,-2A2,2 0 0,1 2,0Z" style="opacity: 1; stroke-width: 0px; fill: rgb(11, 121, 230); fill-opacity: 1;"/></g><g class="text"/></g><g class="trace scatter trace4a2486" style="stroke-miterlimit: 2; opacity: 1;"><g class="fills"/><g class="errorbars"/><g class="lines"/><g class="points"><path class="point" transform="translate(41.99,21.12)" d="M2,0A2,2 0 1,1 0,-2A2,2 0 0,1 2,0Z" style="opacity: 1; stroke-width: 0px; fill: rgb(11, 121, 230); fill-opacity: 1;"/></g><g class="text"/></g><g class="trace scatter trace22d97e" style="stroke-miterlimit: 2; opacity: 1;"><g class="fills"/><g class="errorbars"/><g class="lines"/><g class="points"><path class="point" transform="translate(39.29,21.12)" d="M2,0A2,2 0 1,1 0,-2A2,2 0 0,1 2,0Z" style="opacity: 1; stroke-width: 0px; fill: rgb(11, 121, 230); fill-opacity: 1;"/></g><g class="text"/></g><g class="trace scatter trace78069d" style="stroke-miterlimit: 2; opacity: 1;"><g class="fills"/><g class="errorbars"/><g class="lines"/><g class="points"><path class="point" transform="translate(131.66,21.12)" d="M2,0A2,2 0 1,1 0,-2A2,2 0 0,1 2,0Z" style="opacity: 1; stroke-width: 0px; fill: rgb(11, 121, 230); fill-opacity: 1;"/></g><g class="text"/></g><g class="trace scatter trace66eb4b" style="stroke-miterlimit: 2; opacity: 1;"><g class="fills"/><g class="errorbars"/><g class="lines"/><g class="points"><path class="point" transform="translate(22.92,21.12)" d="M2,0A2,2 0 1,1 0,-2A2,2 0 0,1 2,0Z" style="opacity: 1; stroke-width: 0px; fill: rgb(11, 121, 230); fill-opacity: 1;"/></g><g class="text"/></g><g class="trace scatter traced2a206" style="stroke-miterlimit: 2; opacity: 1;"><g class="fills"/><g class="errorbars"/><g class="lines"/><g class="points"><path class="point" transform="translate(18.37,21.12)" d="M2,0A2,2 0 1,1 0,-2A2,2 0 0,1 2,0Z" style="opacity: 1; stroke-width: 0px; fill: rgb(11, 121, 230); fill-opacity: 1;"/></g><g class="text"/></g><g class="trace scatter trace48c7c0" style="stroke-miterlimit: 2; opacity: 1;"><g class="fills"/><g class="errorbars"/><g class="lines"/><g class="points"><path class="point" transform="translate(21.88,21.12)" d="M2,0A2,2 0 1,1 0,-2A2,2 0 0,1 2,0Z" style="opacity: 1; stroke-width: 0px; fill: rgb(11, 121, 230); fill-opacity: 1;"/></g><g class="text"/></g><g class="trace scatter trace271f23" style="stroke-miterlimit: 2; opacity: 1;"><g class="fills"/><g class="errorbars"/><g class="lines"/><g class="points"><path class="point" transform="translate(18.81,21.12)" d="M2,0A2,2 0 1,1 0,-2A2,2 0 0,1 2,0Z" style="opacity: 1; stroke-width: 0px; fill: rgb(11, 121, 230); fill-opacity: 1;"/></g><g class="text"/></g><g class="trace scatter trace952f74" style="stroke-miterlimit: 2; opacity: 1;"><g class="fills"/><g class="errorbars"/><g class="lines"/><g class="points"><path class="point" transform="translate(27.4,21.12)" d="M2,0A2,2 0 1,1 0,-2A2,2 0 0,1 2,0Z" style="opacity: 1; stroke-width: 0px; fill: rgb(11, 121, 230); fill-opacity: 1;"/></g><g class="text"/></g><g class="trace scatter trace365156" style="stroke-miterlimit: 2; opacity: 1;"><g class="fills"/><g class="errorbars"/><g class="lines"/><g class="points"><path class="point" transform="translate(21.79,21.12)" d="M2,0A2,2 0 1,1 0,-2A2,2 0 0,1 2,0Z" style="opacity: 1; stroke-width: 0px; fill: rgb(11, 121, 230); fill-opacity: 1;"/></g><g class="text"/></g><g class="trace scatter trace2cdf08" style="stroke-miterlimit: 2; opacity: 1;"><g class="fills"/><g class="errorbars"/><g class="lines"/><g class="points"><path class="point" transform="translate(29.25,21.12)" d="M2,0A2,2 0 1,1 0,-2A2,2 0 0,1 2,0Z" style="opacity: 1; stroke-width: 0px; fill: rgb(11, 121, 230); fill-opacity: 1;"/></g><g class="text"/></g><g class="trace scatter trace096f3f" style="stroke-miterlimit: 2; opacity: 1;"><g class="fills"/><g class="errorbars"/><g class="lines"/><g class="points"><path class="point" transform="translate(66.52,21.12)" d="M2,0A2,2 0 1,1 0,-2A2,2 0 0,1 2,0Z" style="opacity: 1; stroke-width: 0px; fill: rgb(11, 121, 230); fill-opacity: 1;"/></g><g class="text"/></g><g class="trace scatter trace341df2" style="stroke-miterlimit: 2; opacity: 1;"><g class="fills"/><g class="errorbars"/><g class="lines"/><g class="points"><path class="point" transform="translate(21.05,21.12)" d="M2,0A2,2 0 1,1 0,-2A2,2 0 0,1 2,0Z" style="opacity: 1; stroke-width: 0px; fill: rgb(11, 121, 230); fill-opacity: 1;"/></g><g class="text"/></g><g class="trace scatter trace4009d8" style="stroke-miterlimit: 2; opacity: 1;"><g class="fills"/><g class="errorbars"/><g class="lines"/><g class="points"><path class="point" transform="translate(20.2,21.12)" d="M2,0A2,2 0 1,1 0,-2A2,2 0 0,1 2,0Z" style="opacity: 1; stroke-width: 0px; fill: rgb(11, 121, 230); fill-opacity: 1;"/></g><g class="text"/></g><g class="trace scatter trace756ba8" style="stroke-miterlimit: 2; opacity: 1;"><g class="fills"/><g class="errorbars"/><g class="lines"/><g class="points"><path class="point" transform="translate(16.59,21.12)" d="M2,0A2,2 0 1,1 0,-2A2,2 0 0,1 2,0Z" style="opacity: 1; stroke-width: 0px; fill: rgb(11, 121, 230); fill-opacity: 1;"/></g><g class="text"/></g><g class="trace scatter traceb99395" style="stroke-miterlimit: 2; opacity: 1;"><g class="fills"/><g class="errorbars"/><g class="lines"/><g class="points"><path class="point" transform="translate(18.42,21.12)" d="M2,0A2,2 0 1,1 0,-2A2,2 0 0,1 2,0Z" style="opacity: 1; stroke-width: 0px; fill: rgb(11, 121, 230); fill-opacity: 1;"/></g><g class="text"/></g></g></g><g class="overplot"/><path class="xlines-above crisp" d="M0,0" style="fill: none;"/><path class="ylines-above crisp" d="M0,0" style="fill: none;"/><g class="overlines-above"/><g class="xaxislayer-above"><g class="x2tick"><text text-anchor="middle" x="0" y="172.61538461538464" transform="translate(84.98,0)" style="font-family: 'Lucida Grande', 'Open Sans', verdana, arial, sans-serif; font-size: 9px; fill: rgb(0, 0, 0); fill-opacity: 0.5; white-space: pre; opacity: 1;">0</text></g><g class="x2tick"><text text-anchor="middle" x="0" y="172.61538461538464" style="font-family: 'Lucida Grande', 'Open Sans', verdana, arial, sans-serif; font-size: 9px; fill: rgb(0, 0, 0); fill-opacity: 0.5; white-space: pre; opacity: 1;" transform="translate(196.45999999999998,0)">100k</text></g><g class="x2tick"><text text-anchor="middle" x="0" y="172.61538461538464" style="font-family: 'Lucida Grande', 'Open Sans', verdana, arial, sans-serif; font-size: 9px; fill: rgb(0, 0, 0); fill-opacity: 0.5; white-space: pre; opacity: 1;" transform="translate(307.95,0)">200k</text></g><g class="x2tick"><text text-anchor="middle" x="0" y="172.61538461538464" style="font-family: 'Lucida Grande', 'Open Sans', verdana, arial, sans-serif; font-size: 9px; fill: rgb(0, 0, 0); fill-opacity: 0.5; white-space: pre; opacity: 1;" transform="translate(419.43,0)">300k</text></g><g class="x2tick"><text text-anchor="middle" x="0" y="172.61538461538464" style="font-family: 'Lucida Grande', 'Open Sans', verdana, arial, sans-serif; font-size: 9px; fill: rgb(0, 0, 0); fill-opacity: 0.5; white-space: pre; opacity: 1;" transform="translate(530.9200000000001,0)">400k</text></g><g class="x2tick"><text text-anchor="middle" x="0" y="172.61538461538464" style="font-family: 'Lucida Grande', 'Open Sans', verdana, arial, sans-serif; font-size: 9px; fill: rgb(0, 0, 0); fill-opacity: 0.5; white-space: pre; opacity: 1;" transform="translate(642.4,0)">500k</text></g><g class="x2tick"><text text-anchor="middle" x="0" y="172.61538461538464" style="font-family: 'Lucida Grande', 'Open Sans', verdana, arial, sans-serif; font-size: 9px; fill: rgb(0, 0, 0); fill-opacity: 0.5; white-space: pre; opacity: 1;" transform="translate(753.89,0)">600k</text></g><g class="x2tick"><text text-anchor="middle" x="0" y="172.61538461538464" style="font-family: 'Lucida Grande', 'Open Sans', verdana, arial, sans-serif; font-size: 9px; fill: rgb(0, 0, 0); fill-opacity: 0.5; white-space: pre; opacity: 1;" transform="translate(865.37,0)">700k</text></g><g class="x2tick"><text text-anchor="middle" x="0" y="172.61538461538464" style="font-family: 'Lucida Grande', 'Open Sans', verdana, arial, sans-serif; font-size: 9px; fill: rgb(0, 0, 0); fill-opacity: 0.5; white-space: pre; opacity: 1;" transform="translate(976.86,0)">800k</text></g></g><g class="yaxislayer-above"><g class="y2tick"><text text-anchor="end" x="79" y="3.15" transform="translate(0,141.5046153846154)" style="font-family: 'Lucida Grande', 'Open Sans', verdana, arial, sans-serif; font-size: 9px; fill: rgb(0, 0, 0); fill-opacity: 0.5; white-space: pre; opacity: 1;">Occurrences  </text></g></g><g class="overaxes-above"/></g><g class="subplot x3y3"><g class="layer-subplot"><g class="shapelayer"/><g class="imagelayer"/></g><g class="minor-gridlayer"><g class="x3"/><g class="y3"/></g><g class="gridlayer"><g class="x3"><path class="x3grid crisp" transform="translate(283.98,0)" d="M0,190.76923076923077v42.230769230769226" style="stroke: rgb(0, 0, 0); stroke-opacity: 0.1; stroke-width: 1px;"/><path class="x3grid crisp" transform="translate(482.99,0)" d="M0,190.76923076923077v42.230769230769226" style="stroke: rgb(0, 0, 0); stroke-opacity: 0.1; stroke-width: 1px;"/><path class="x3grid crisp" transform="translate(681.99,0)" d="M0,190.76923076923077v42.230769230769226" style="stroke: rgb(0, 0, 0); stroke-opacity: 0.1; stroke-width: 1px;"/><path class="x3grid crisp" transform="translate(881,0)" d="M0,190.76923076923077v42.230769230769226" style="stroke: rgb(0, 0, 0); stroke-opacity: 0.1; stroke-width: 1px;"/><path class="x3grid crisp" transform="translate(1080,0)" d="M0,190.76923076923077v42.230769230769226" style="stroke: rgb(0, 0, 0); stroke-opacity: 0.1; stroke-width: 1px;"/></g><g class="y3"><path class="y3grid crisp" transform="translate(0,211.88923076923078)" d="M80,0h1005" style="stroke: rgb(0, 0, 0); stroke-opacity: 0.1; stroke-width: 1px;"/></g></g><g class="zerolinelayer"><path class="x3zl zl crisp" transform="translate(84.98,0)" d="M0,190.76923076923077v42.230769230769226" style="stroke: rgb(0, 0, 0); stroke-opacity: 0.1; stroke-width: 2px;"/></g><path class="xlines-below"/><path class="ylines-below"/><g class="overlines-below"/><g class="xaxislayer-below"/><g class="yaxislayer-below"/><g class="overaxes-below"/><g class="plot" transform="translate(80,190.76923076923077)" clip-path="url(#clip6fd7dcx3y3plot)"><g class="violinlayer mlayer"><g class="trace violins" style="opacity: 0.5;"><path class="violin" d="M1.16,20.32Q1.79,19.82 2.07,19.48C2.4,19.09 2.7,18.61 2.98,18.09C3.31,17.49 3.6,16.78 3.89,16.05C4.21,15.25 4.5,14.35 4.8,13.47C5.11,12.56 5.4,11.58 5.71,10.68C6.01,9.83 6.28,8.94 6.62,8.22C6.9,7.62 7.16,6.96 7.53,6.65C7.8,6.43 8.16,6.26 8.44,6.33C8.77,6.41 9.07,6.89 9.34,7.29C9.69,7.8 9.96,8.53 10.25,9.21C10.57,9.95 10.86,10.79 11.16,11.57C11.46,12.35 11.76,13.16 12.07,13.9C12.36,14.59 12.66,15.27 12.98,15.87C13.27,16.41 13.57,16.92 13.89,17.35C14.18,17.73 14.48,18.07 14.8,18.36C15.09,18.63 15.4,18.84 15.71,19.04C16.01,19.23 16.31,19.38 16.62,19.52C16.92,19.66 17.22,19.78 17.53,19.9C17.83,20.02 18.14,20.12 18.44,20.22C18.74,20.32 19.05,20.42 19.35,20.5C19.65,20.58 19.96,20.65 20.26,20.71C20.56,20.77 20.87,20.82 21.17,20.85C21.47,20.88 21.78,20.91 22.08,20.91C22.38,20.91 22.69,20.9 22.99,20.87C23.29,20.85 23.59,20.81 23.89,20.76C24.19,20.71 24.5,20.65 24.8,20.58C25.1,20.51 25.41,20.43 25.71,20.36C26.01,20.29 26.32,20.22 26.62,20.16C26.92,20.1 27.23,20.05 27.53,20.02C27.83,19.99 28.14,19.97 28.44,19.97C28.74,19.97 29.05,19.99 29.35,20.01C29.65,20.03 29.96,20.07 30.26,20.09C30.56,20.11 30.87,20.14 31.17,20.15C31.47,20.16 31.78,20.16 32.08,20.15C32.38,20.14 32.69,20.11 32.99,20.09C33.29,20.07 33.6,20.03 33.9,20.01C34.2,19.99 34.51,19.97 34.81,19.97C35.11,19.97 35.42,19.99 35.72,20.02C36.02,20.05 36.33,20.1 36.63,20.16C36.93,20.22 37.23,20.29 37.53,20.36C37.83,20.43 38.14,20.51 38.44,20.58C38.74,20.65 39.05,20.72 39.35,20.78C39.65,20.84 39.96,20.88 40.26,20.92C40.56,20.96 40.87,20.99 41.17,21.02C41.47,21.04 41.78,21.06 42.08,21.07C42.38,21.08 42.69,21.09 42.99,21.1C43.29,21.11 43.6,21.11 43.9,21.11C44.2,21.11 44.51,21.11 44.81,21.11C45.11,21.11 45.42,21.11 45.72,21.11C46.02,21.11 46.33,21.12 46.63,21.12C46.93,21.12 47.24,21.12 47.54,21.12C47.84,21.12 48.15,21.12 48.45,21.12C48.75,21.12 49.06,21.12 49.36,21.12C49.66,21.12 49.97,21.11 50.27,21.11C50.57,21.11 50.88,21.11 51.18,21.11C51.48,21.11 51.78,21.11 52.08,21.11C52.38,21.11 52.69,21.11 52.99,21.1C53.29,21.09 53.6,21.08 53.9,21.07C54.2,21.06 54.51,21.05 54.81,21.03C55.11,21.01 55.42,20.98 55.72,20.94C56.02,20.9 56.33,20.85 56.63,20.8C56.93,20.74 57.24,20.68 57.54,20.61C57.84,20.54 58.15,20.46 58.45,20.39C58.75,20.32 59.06,20.24 59.36,20.18C59.66,20.12 59.97,20.08 60.27,20.05C60.57,20.02 60.88,20.01 61.18,20.02C61.48,20.03 61.79,20.07 62.09,20.11C62.39,20.16 62.7,20.22 63,20.29C63.3,20.36 63.61,20.44 63.91,20.51C64.21,20.58 64.52,20.65 64.82,20.71C65.12,20.77 65.43,20.83 65.73,20.88C66.03,20.93 66.33,20.96 66.63,20.99C66.93,21.02 67.24,21.04 67.54,21.06C67.84,21.08 68.15,21.08 68.45,21.09C68.75,21.1 69.06,21.11 69.36,21.11C69.66,21.11 69.97,21.11 70.27,21.11C70.57,21.11 70.88,21.11 71.18,21.11C71.48,21.11 71.79,21.12 72.09,21.12C72.39,21.12 72.7,21.12 73,21.12C73.3,21.12 73.61,21.12 73.91,21.12C74.21,21.12 74.52,21.12 74.82,21.12C75.12,21.12 75.43,21.12 75.73,21.12C76.03,21.12 76.34,21.12 76.64,21.12C76.94,21.12 77.25,21.12 77.55,21.12C77.85,21.12 78.16,21.12 78.46,21.12C78.76,21.12 79.07,21.12 79.37,21.12C79.67,21.12 79.97,21.12 80.27,21.12C80.57,21.12 80.88,21.12 81.18,21.12C81.48,21.12 81.79,21.12 82.09,21.12C82.39,21.12 82.7,21.12 83,21.12C83.3,21.12 83.61,21.12 83.91,21.12C84.21,21.12 84.52,21.12 84.82,21.12C85.12,21.12 85.43,21.12 85.73,21.12C86.03,21.12 86.34,21.12 86.64,21.12C86.94,21.12 87.25,21.12 87.55,21.12C87.85,21.12 88.16,21.12 88.46,21.12C88.76,21.12 89.07,21.12 89.37,21.12C89.67,21.12 89.98,21.12 90.28,21.12C90.58,21.12 90.89,21.12 91.19,21.12C91.49,21.12 91.8,21.12 92.1,21.12C92.4,21.12 92.71,21.12 93.01,21.12C93.31,21.12 93.62,21.12 93.92,21.12C94.22,21.12 94.52,21.12 94.82,21.12C95.12,21.12 95.43,21.12 95.73,21.12C96.03,21.12 96.34,21.12 96.64,21.12C96.94,21.12 97.25,21.12 97.55,21.12C97.85,21.12 98.16,21.12 98.46,21.12C98.76,21.12 99.07,21.12 99.37,21.12C99.67,21.12 99.98,21.12 100.28,21.12C100.58,21.12 100.89,21.12 101.19,21.12C101.49,21.12 101.8,21.12 102.1,21.12C102.4,21.12 102.71,21.12 103.01,21.12C103.31,21.12 103.62,21.12 103.92,21.12C104.22,21.12 104.53,21.12 104.83,21.12C105.13,21.12 105.44,21.12 105.74,21.12C106.04,21.12 106.35,21.12 106.65,21.12C106.95,21.12 107.26,21.12 107.56,21.12C107.86,21.12 108.16,21.12 108.46,21.12C108.76,21.12 109.07,21.12 109.37,21.12C109.67,21.12 109.98,21.12 110.28,21.12C110.58,21.12 110.89,21.12 111.19,21.12C111.49,21.12 111.8,21.12 112.1,21.12C112.4,21.12 112.71,21.12 113.01,21.12C113.31,21.12 113.62,21.12 113.92,21.12C114.22,21.12 114.53,21.12 114.83,21.12C115.13,21.12 115.44,21.12 115.74,21.12C116.04,21.12 116.35,21.12 116.65,21.12C116.95,21.12 117.26,21.12 117.56,21.12C117.86,21.12 118.17,21.12 118.47,21.12C118.77,21.12 119.08,21.12 119.38,21.12C119.68,21.12 119.99,21.12 120.29,21.12C120.59,21.12 120.9,21.12 121.2,21.12C121.5,21.12 121.81,21.12 122.11,21.12C122.41,21.12 122.71,21.12 123.01,21.12C123.31,21.12 123.62,21.12 123.92,21.12C124.22,21.12 124.53,21.12 124.83,21.12C125.13,21.12 125.44,21.12 125.74,21.12C126.04,21.12 126.35,21.12 126.65,21.12C126.95,21.12 127.26,21.12 127.56,21.12C127.86,21.12 128.17,21.12 128.47,21.12C128.77,21.12 129.08,21.12 129.38,21.12C129.68,21.12 129.99,21.12 130.29,21.12C130.59,21.12 130.9,21.12 131.2,21.12C131.5,21.12 131.81,21.12 132.11,21.12C132.41,21.12 132.72,21.12 133.02,21.12C133.32,21.12 133.63,21.12 133.93,21.12C134.23,21.12 134.54,21.12 134.84,21.12C135.14,21.12 135.45,21.12 135.75,21.12C136.05,21.12 136.35,21.12 136.65,21.12C136.95,21.12 137.26,21.12 137.56,21.12C137.86,21.12 138.17,21.12 138.47,21.12C138.77,21.12 139.08,21.12 139.38,21.12C139.68,21.12 139.99,21.12 140.29,21.12C140.59,21.12 140.9,21.12 141.2,21.12C141.5,21.12 141.81,21.12 142.11,21.12C142.41,21.12 142.72,21.12 143.02,21.12C143.32,21.12 143.63,21.12 143.93,21.12C144.23,21.12 144.54,21.12 144.84,21.12C145.14,21.12 145.45,21.12 145.75,21.12C146.05,21.12 146.36,21.12 146.66,21.12C146.96,21.12 147.27,21.12 147.57,21.12C147.87,21.12 148.18,21.12 148.48,21.12C148.78,21.12 149.09,21.12 149.39,21.12C149.69,21.12 150,21.12 150.3,21.12C150.6,21.12 150.9,21.12 151.2,21.12C151.5,21.12 151.81,21.12 152.11,21.12C152.41,21.12 152.72,21.12 153.02,21.12C153.32,21.12 153.63,21.12 153.93,21.12C154.23,21.12 154.54,21.12 154.84,21.12C155.14,21.12 155.45,21.12 155.75,21.12C156.05,21.12 156.36,21.12 156.66,21.12C156.96,21.12 157.27,21.12 157.57,21.12C157.87,21.12 158.18,21.12 158.48,21.12C158.78,21.12 159.09,21.12 159.39,21.12C159.69,21.12 160,21.12 160.3,21.12C160.6,21.12 160.91,21.12 161.21,21.12C161.51,21.12 161.82,21.12 162.12,21.12C162.42,21.12 162.73,21.12 163.03,21.12C163.33,21.12 163.64,21.12 163.94,21.12C164.24,21.12 164.55,21.12 164.85,21.12C165.15,21.12 165.45,21.12 165.75,21.12C166.05,21.12 166.36,21.12 166.66,21.12C166.96,21.12 167.27,21.12 167.57,21.12C167.87,21.12 168.18,21.12 168.48,21.12C168.78,21.12 169.09,21.12 169.39,21.12C169.69,21.12 170,21.12 170.3,21.12C170.6,21.12 170.91,21.12 171.21,21.12C171.51,21.12 171.82,21.12 172.12,21.12C172.42,21.12 172.73,21.12 173.03,21.12C173.33,21.12 173.64,21.12 173.94,21.12C174.24,21.12 174.55,21.12 174.85,21.12C175.15,21.12 175.46,21.11 175.76,21.11C176.06,21.11 176.37,21.11 176.67,21.11C176.97,21.11 177.28,21.11 177.58,21.11C177.88,21.11 178.19,21.11 178.49,21.1C178.79,21.1 179.09,21.09 179.39,21.08C179.69,21.07 180,21.06 180.3,21.04C180.6,21.02 180.91,20.99 181.21,20.96C181.51,20.93 181.82,20.89 182.12,20.84C182.42,20.79 182.73,20.73 183.03,20.66C183.33,20.59 183.64,20.51 183.94,20.44C184.24,20.37 184.55,20.29 184.85,20.23C185.15,20.17 185.46,20.1 185.76,20.07C186.06,20.04 186.37,20.02 186.67,20.02C186.97,20.02 187.28,20.04 187.58,20.08C187.88,20.12 188.19,20.18 188.49,20.24C188.79,20.3 189.1,20.38 189.4,20.45C189.7,20.52 190.01,20.59 190.31,20.66C190.61,20.72 190.92,20.79 191.22,20.84Q191.52,20.89 192.13,20.97L192.13,21.26Q191.52,21.34 191.22,21.39C190.92,21.44 190.61,21.51 190.31,21.57C190.01,21.64 189.7,21.71 189.4,21.78C189.1,21.85 188.79,21.93 188.49,21.99C188.19,22.05 187.88,22.11 187.58,22.15C187.28,22.19 186.97,22.22 186.67,22.22C186.37,22.22 186.06,22.2 185.76,22.16C185.46,22.12 185.15,22.06 184.85,22C184.55,21.94 184.24,21.86 183.94,21.79C183.64,21.72 183.33,21.64 183.03,21.57C182.73,21.5 182.42,21.44 182.12,21.39C181.82,21.34 181.51,21.3 181.21,21.27C180.91,21.24 180.6,21.21 180.3,21.19C180,21.17 179.69,21.16 179.39,21.15C179.09,21.14 178.79,21.13 178.49,21.13C178.19,21.12 177.88,21.12 177.58,21.12C177.28,21.12 176.97,21.12 176.67,21.12C176.37,21.12 176.06,21.12 175.76,21.12C175.46,21.12 175.15,21.12 174.85,21.12C174.55,21.12 174.24,21.12 173.94,21.12C173.64,21.12 173.33,21.12 173.03,21.12C172.73,21.12 172.42,21.12 172.12,21.12C171.82,21.12 171.51,21.12 171.21,21.12C170.91,21.12 170.6,21.12 170.3,21.12C170,21.12 169.69,21.12 169.39,21.12C169.09,21.12 168.78,21.12 168.48,21.12C168.18,21.12 167.87,21.12 167.57,21.12C167.27,21.12 166.96,21.12 166.66,21.12C166.36,21.12 166.05,21.12 165.75,21.12C165.45,21.12 165.15,21.12 164.85,21.12C164.55,21.12 164.24,21.12 163.94,21.12C163.64,21.12 163.33,21.12 163.03,21.12C162.73,21.12 162.42,21.12 162.12,21.12C161.82,21.12 161.51,21.12 161.21,21.12C160.91,21.12 160.6,21.12 160.3,21.12C160,21.12 159.69,21.12 159.39,21.12C159.09,21.12 158.78,21.12 158.48,21.12C158.18,21.12 157.87,21.12 157.57,21.12C157.27,21.12 156.96,21.12 156.66,21.12C156.36,21.12 156.05,21.12 155.75,21.12C155.45,21.12 155.14,21.12 154.84,21.12C154.54,21.12 154.23,21.12 153.93,21.12C153.63,21.12 153.32,21.12 153.02,21.12C152.72,21.12 152.41,21.12 152.11,21.12C151.81,21.12 151.5,21.12 151.2,21.12C150.9,21.12 150.6,21.12 150.3,21.12C150,21.12 149.69,21.12 149.39,21.12C149.09,21.12 148.78,21.12 148.48,21.12C148.18,21.12 147.87,21.12 147.57,21.12C147.27,21.12 146.96,21.12 146.66,21.12C146.36,21.12 146.05,21.12 145.75,21.12C145.45,21.12 145.14,21.12 144.84,21.12C144.54,21.12 144.23,21.12 143.93,21.12C143.63,21.12 143.32,21.12 143.02,21.12C142.72,21.12 142.41,21.12 142.11,21.12C141.81,21.12 141.5,21.12 141.2,21.12C140.9,21.12 140.59,21.12 140.29,21.12C139.99,21.12 139.68,21.12 139.38,21.12C139.08,21.12 138.77,21.12 138.47,21.12C138.17,21.12 137.86,21.12 137.56,21.12C137.26,21.12 136.95,21.12 136.65,21.12C136.35,21.12 136.05,21.12 135.75,21.12C135.45,21.12 135.14,21.12 134.84,21.12C134.54,21.12 134.23,21.12 133.93,21.12C133.63,21.12 133.32,21.12 133.02,21.12C132.72,21.12 132.41,21.12 132.11,21.12C131.81,21.12 131.5,21.12 131.2,21.12C130.9,21.12 130.59,21.12 130.29,21.12C129.99,21.12 129.68,21.12 129.38,21.12C129.08,21.12 128.77,21.12 128.47,21.12C128.17,21.12 127.86,21.12 127.56,21.12C127.26,21.12 126.95,21.12 126.65,21.12C126.35,21.12 126.04,21.12 125.74,21.12C125.44,21.12 125.13,21.12 124.83,21.12C124.53,21.12 124.22,21.12 123.92,21.12C123.62,21.12 123.31,21.12 123.01,21.12C122.71,21.12 122.41,21.12 122.11,21.12C121.81,21.12 121.5,21.12 121.2,21.12C120.9,21.12 120.59,21.12 120.29,21.12C119.99,21.12 119.68,21.12 119.38,21.12C119.08,21.12 118.77,21.12 118.47,21.12C118.17,21.12 117.86,21.12 117.56,21.12C117.26,21.12 116.95,21.12 116.65,21.12C116.35,21.12 116.04,21.12 115.74,21.12C115.44,21.12 115.13,21.12 114.83,21.12C114.53,21.12 114.22,21.12 113.92,21.12C113.62,21.12 113.31,21.12 113.01,21.12C112.71,21.12 112.4,21.12 112.1,21.12C111.8,21.12 111.49,21.12 111.19,21.12C110.89,21.12 110.58,21.12 110.28,21.12C109.98,21.12 109.67,21.12 109.37,21.12C109.07,21.12 108.76,21.12 108.46,21.12C108.16,21.12 107.86,21.12 107.56,21.12C107.26,21.12 106.95,21.12 106.65,21.12C106.35,21.12 106.04,21.12 105.74,21.12C105.44,21.12 105.13,21.12 104.83,21.12C104.53,21.12 104.22,21.12 103.92,21.12C103.62,21.12 103.31,21.12 103.01,21.12C102.71,21.12 102.4,21.12 102.1,21.12C101.8,21.12 101.49,21.12 101.19,21.12C100.89,21.12 100.58,21.12 100.28,21.12C99.98,21.12 99.67,21.12 99.37,21.12C99.07,21.12 98.76,21.12 98.46,21.12C98.16,21.12 97.85,21.12 97.55,21.12C97.25,21.12 96.94,21.12 96.64,21.12C96.34,21.12 96.03,21.12 95.73,21.12C95.43,21.12 95.12,21.12 94.82,21.12C94.52,21.12 94.22,21.12 93.92,21.12C93.62,21.12 93.31,21.12 93.01,21.12C92.71,21.12 92.4,21.12 92.1,21.12C91.8,21.12 91.49,21.12 91.19,21.12C90.89,21.12 90.58,21.12 90.28,21.12C89.98,21.12 89.67,21.12 89.37,21.12C89.07,21.12 88.76,21.12 88.46,21.12C88.16,21.12 87.85,21.12 87.55,21.12C87.25,21.12 86.94,21.12 86.64,21.12C86.34,21.12 86.03,21.12 85.73,21.12C85.43,21.12 85.12,21.12 84.82,21.12C84.52,21.12 84.21,21.12 83.91,21.12C83.61,21.12 83.3,21.12 83,21.12C82.7,21.12 82.39,21.12 82.09,21.12C81.79,21.12 81.48,21.12 81.18,21.12C80.88,21.12 80.57,21.12 80.27,21.12C79.97,21.12 79.67,21.12 79.37,21.12C79.07,21.12 78.76,21.12 78.46,21.12C78.16,21.12 77.85,21.12 77.55,21.12C77.25,21.12 76.94,21.12 76.64,21.12C76.34,21.12 76.03,21.12 75.73,21.12C75.43,21.12 75.12,21.12 74.82,21.12C74.52,21.12 74.21,21.12 73.91,21.12C73.61,21.12 73.3,21.12 73,21.12C72.7,21.12 72.39,21.12 72.09,21.12C71.79,21.12 71.48,21.12 71.18,21.12C70.88,21.12 70.57,21.12 70.27,21.12C69.97,21.12 69.66,21.12 69.36,21.12C69.06,21.12 68.75,21.13 68.45,21.14C68.15,21.15 67.84,21.15 67.54,21.17C67.24,21.19 66.93,21.21 66.63,21.24C66.33,21.27 66.03,21.3 65.73,21.35C65.43,21.4 65.12,21.46 64.82,21.52C64.52,21.58 64.21,21.65 63.91,21.72C63.61,21.79 63.3,21.87 63,21.94C62.7,22.01 62.39,22.07 62.09,22.12C61.79,22.16 61.48,22.2 61.18,22.21C60.88,22.22 60.57,22.21 60.27,22.18C59.97,22.15 59.66,22.11 59.36,22.05C59.06,21.99 58.75,21.91 58.45,21.84C58.15,21.77 57.84,21.7 57.54,21.63C57.24,21.56 56.93,21.5 56.63,21.44C56.33,21.38 56.02,21.33 55.72,21.29C55.42,21.25 55.11,21.23 54.81,21.21C54.51,21.19 54.2,21.17 53.9,21.16C53.6,21.15 53.29,21.14 52.99,21.13C52.69,21.12 52.38,21.12 52.08,21.12C51.78,21.12 51.48,21.12 51.18,21.12C50.88,21.12 50.57,21.12 50.27,21.12C49.97,21.12 49.66,21.12 49.36,21.12C49.06,21.12 48.75,21.12 48.45,21.12C48.15,21.12 47.84,21.12 47.54,21.12C47.24,21.12 46.93,21.12 46.63,21.12C46.33,21.12 46.02,21.12 45.72,21.12C45.42,21.12 45.11,21.12 44.81,21.12C44.51,21.12 44.2,21.12 43.9,21.12C43.6,21.12 43.29,21.12 42.99,21.13C42.69,21.14 42.38,21.15 42.08,21.16C41.78,21.17 41.47,21.19 41.17,21.21C40.87,21.24 40.56,21.27 40.26,21.31C39.96,21.35 39.65,21.39 39.35,21.45C39.05,21.51 38.74,21.58 38.44,21.65C38.14,21.72 37.83,21.8 37.53,21.87C37.23,21.94 36.93,22.01 36.63,22.07C36.33,22.13 36.02,22.18 35.72,22.21C35.42,22.24 35.11,22.26 34.81,22.26C34.51,22.26 34.2,22.24 33.9,22.22C33.6,22.2 33.29,22.17 32.99,22.15C32.69,22.13 32.38,22.1 32.08,22.09C31.78,22.08 31.47,22.08 31.17,22.09C30.87,22.1 30.56,22.13 30.26,22.15C29.96,22.17 29.65,22.2 29.35,22.22C29.05,22.24 28.74,22.26 28.44,22.26C28.14,22.26 27.83,22.24 27.53,22.21C27.23,22.18 26.92,22.13 26.62,22.07C26.32,22.01 26.01,21.94 25.71,21.87C25.41,21.8 25.1,21.73 24.8,21.66C24.5,21.59 24.19,21.52 23.89,21.47C23.59,21.42 23.29,21.38 22.99,21.36C22.69,21.33 22.38,21.32 22.08,21.32C21.78,21.32 21.47,21.35 21.17,21.38C20.87,21.41 20.56,21.46 20.26,21.52C19.96,21.58 19.65,21.65 19.35,21.73C19.05,21.81 18.74,21.91 18.44,22.01C18.14,22.11 17.83,22.22 17.53,22.34C17.23,22.46 16.92,22.57 16.62,22.71C16.31,22.85 16.01,23 15.71,23.19C15.4,23.39 15.09,23.6 14.8,23.87C14.48,24.16 14.18,24.5 13.89,24.88C13.57,25.31 13.27,25.82 12.98,26.36C12.66,26.96 12.36,27.64 12.07,28.33C11.76,29.07 11.46,29.88 11.16,30.66C10.86,31.45 10.57,32.29 10.25,33.03C9.96,33.71 9.69,34.43 9.34,34.94C9.07,35.34 8.77,35.82 8.44,35.9C8.16,35.97 7.8,35.8 7.53,35.58C7.16,35.27 6.9,34.61 6.62,34.01C6.28,33.29 6.01,32.4 5.71,31.55C5.4,30.65 5.11,29.67 4.8,28.76C4.5,27.88 4.21,26.98 3.89,26.18C3.6,25.45 3.31,24.74 2.98,24.14C2.7,23.62 2.4,23.14 2.07,22.75Q1.79,22.41 1.16,21.91Z" style="vector-effect: none; stroke-width: 2px; stroke: rgb(128, 128, 128); stroke-opacity: 1; fill: rgb(128, 128, 128); fill-opacity: 1;"/><path class="box" d="M8.629999999999999,24.81V17.42M7.63,24.81V17.42H13.97V24.81ZM7.63,21.12H6.63M13.97,21.12H16.21" style="vector-effect: non-scaling-stroke; stroke-width: 2px; stroke: rgb(128, 128, 128); stroke-opacity: 1; fill: rgb(128, 128, 128); fill-opacity: 1;"/><path class="mean" d="M22.65,24.81V17.42" style="fill: none; vector-effect: non-scaling-stroke; stroke-width: 2px; stroke-dasharray: 4px, 2px; stroke: rgb(128, 128, 128); stroke-opacity: 1;"/></g></g><g class="scatterlayer mlayer"><g class="trace scatter trace54ccc8" style="stroke-miterlimit: 2; opacity: 1;"><g class="fills"/><g class="errorbars"/><g class="lines"/><g class="points"><path class="point" transform="translate(6.63,21.12)" d="M2,0A2,2 0 1,1 0,-2A2,2 0 0,1 2,0Z" style="opacity: 1; stroke-width: 0px; fill: rgb(11, 121, 230); fill-opacity: 1;"/></g><g class="text"/></g><g class="trace scatter trace0cf77c" style="stroke-miterlimit: 2; opacity: 1;"><g class="fills"/><g class="errorbars"/><g class="lines"/><g class="points"><path class="point" transform="translate(60.93,21.12)" d="M2,0A2,2 0 1,1 0,-2A2,2 0 0,1 2,0Z" style="opacity: 1; stroke-width: 0px; fill: rgb(11, 121, 230); fill-opacity: 1;"/></g><g class="text"/></g><g class="trace scatter trace3e3496" style="stroke-miterlimit: 2; opacity: 1;"><g class="fills"/><g class="errorbars"/><g class="lines"/><g class="points"><path class="point" transform="translate(8.43,21.12)" d="M2,0A2,2 0 1,1 0,-2A2,2 0 0,1 2,0Z" style="opacity: 1; stroke-width: 0px; fill: rgb(11, 121, 230); fill-opacity: 1;"/></g><g class="text"/></g><g class="trace scatter trace5fd457" style="stroke-miterlimit: 2; opacity: 1;"><g class="fills"/><g class="errorbars"/><g class="lines"/><g class="points"><path class="point" transform="translate(186.65,21.12)" d="M2,0A2,2 0 1,1 0,-2A2,2 0 0,1 2,0Z" style="opacity: 1; stroke-width: 0px; fill: rgb(11, 121, 230); fill-opacity: 1;"/></g><g class="text"/></g><g class="trace scatter tracec9b679" style="stroke-miterlimit: 2; opacity: 1;"><g class="fills"/><g class="errorbars"/><g class="lines"/><g class="points"><path class="point" transform="translate(35.14,21.12)" d="M2,0A2,2 0 1,1 0,-2A2,2 0 0,1 2,0Z" style="opacity: 1; stroke-width: 0px; fill: rgb(11, 121, 230); fill-opacity: 1;"/></g><g class="text"/></g><g class="trace scatter trace0b384b" style="stroke-miterlimit: 2; opacity: 1;"><g class="fills"/><g class="errorbars"/><g class="lines"/><g class="points"><path class="point" transform="translate(11.73,21.12)" d="M2,0A2,2 0 1,1 0,-2A2,2 0 0,1 2,0Z" style="opacity: 1; stroke-width: 0px; fill: rgb(11, 121, 230); fill-opacity: 1;"/></g><g class="text"/></g><g class="trace scatter trace6a03ec" style="stroke-miterlimit: 2; opacity: 1;"><g class="fills"/><g class="errorbars"/><g class="lines"/><g class="points"><path class="point" transform="translate(11.24,21.12)" d="M2,0A2,2 0 1,1 0,-2A2,2 0 0,1 2,0Z" style="opacity: 1; stroke-width: 0px; fill: rgb(11, 121, 230); fill-opacity: 1;"/></g><g class="text"/></g><g class="trace scatter trace49f8bc" style="stroke-miterlimit: 2; opacity: 1;"><g class="fills"/><g class="errorbars"/><g class="lines"/><g class="points"><path class="point" transform="translate(28.11,21.12)" d="M2,0A2,2 0 1,1 0,-2A2,2 0 0,1 2,0Z" style="opacity: 1; stroke-width: 0px; fill: rgb(11, 121, 230); fill-opacity: 1;"/></g><g class="text"/></g><g class="trace scatter traced28128" style="stroke-miterlimit: 2; opacity: 1;"><g class="fills"/><g class="errorbars"/><g class="lines"/><g class="points"><path class="point" transform="translate(8.25,21.12)" d="M2,0A2,2 0 1,1 0,-2A2,2 0 0,1 2,0Z" style="opacity: 1; stroke-width: 0px; fill: rgb(11, 121, 230); fill-opacity: 1;"/></g><g class="text"/></g><g class="trace scatter trace4a2858" style="stroke-miterlimit: 2; opacity: 1;"><g class="fills"/><g class="errorbars"/><g class="lines"/><g class="points"><path class="point" transform="translate(7.42,21.12)" d="M2,0A2,2 0 1,1 0,-2A2,2 0 0,1 2,0Z" style="opacity: 1; stroke-width: 0px; fill: rgb(11, 121, 230); fill-opacity: 1;"/></g><g class="text"/></g><g class="trace scatter trace202cae" style="stroke-miterlimit: 2; opacity: 1;"><g class="fills"/><g class="errorbars"/><g class="lines"/><g class="points"><path class="point" transform="translate(8.06,21.12)" d="M2,0A2,2 0 1,1 0,-2A2,2 0 0,1 2,0Z" style="opacity: 1; stroke-width: 0px; fill: rgb(11, 121, 230); fill-opacity: 1;"/></g><g class="text"/></g><g class="trace scatter trace11031d" style="stroke-miterlimit: 2; opacity: 1;"><g class="fills"/><g class="errorbars"/><g class="lines"/><g class="points"><path class="point" transform="translate(7.5,21.12)" d="M2,0A2,2 0 1,1 0,-2A2,2 0 0,1 2,0Z" style="opacity: 1; stroke-width: 0px; fill: rgb(11, 121, 230); fill-opacity: 1;"/></g><g class="text"/></g><g class="trace scatter trace77083a" style="stroke-miterlimit: 2; opacity: 1;"><g class="fills"/><g class="errorbars"/><g class="lines"/><g class="points"><path class="point" transform="translate(9.07,21.12)" d="M2,0A2,2 0 1,1 0,-2A2,2 0 0,1 2,0Z" style="opacity: 1; stroke-width: 0px; fill: rgb(11, 121, 230); fill-opacity: 1;"/></g><g class="text"/></g><g class="trace scatter trace5158bf" style="stroke-miterlimit: 2; opacity: 1;"><g class="fills"/><g class="errorbars"/><g class="lines"/><g class="points"><path class="point" transform="translate(8.05,21.12)" d="M2,0A2,2 0 1,1 0,-2A2,2 0 0,1 2,0Z" style="opacity: 1; stroke-width: 0px; fill: rgb(11, 121, 230); fill-opacity: 1;"/></g><g class="text"/></g><g class="trace scatter trace233ccc" style="stroke-miterlimit: 2; opacity: 1;"><g class="fills"/><g class="errorbars"/><g class="lines"/><g class="points"><path class="point" transform="translate(9.41,21.12)" d="M2,0A2,2 0 1,1 0,-2A2,2 0 0,1 2,0Z" style="opacity: 1; stroke-width: 0px; fill: rgb(11, 121, 230); fill-opacity: 1;"/></g><g class="text"/></g><g class="trace scatter trace6043cd" style="stroke-miterlimit: 2; opacity: 1;"><g class="fills"/><g class="errorbars"/><g class="lines"/><g class="points"><path class="point" transform="translate(16.21,21.12)" d="M2,0A2,2 0 1,1 0,-2A2,2 0 0,1 2,0Z" style="opacity: 1; stroke-width: 0px; fill: rgb(11, 121, 230); fill-opacity: 1;"/></g><g class="text"/></g><g class="trace scatter tracec79900" style="stroke-miterlimit: 2; opacity: 1;"><g class="fills"/><g class="errorbars"/><g class="lines"/><g class="points"><path class="point" transform="translate(7.91,21.12)" d="M2,0A2,2 0 1,1 0,-2A2,2 0 0,1 2,0Z" style="opacity: 1; stroke-width: 0px; fill: rgb(11, 121, 230); fill-opacity: 1;"/></g><g class="text"/></g><g class="trace scatter tracecb93b0" style="stroke-miterlimit: 2; opacity: 1;"><g class="fills"/><g class="errorbars"/><g class="lines"/><g class="points"><path class="point" transform="translate(7.75,21.12)" d="M2,0A2,2 0 1,1 0,-2A2,2 0 0,1 2,0Z" style="opacity: 1; stroke-width: 0px; fill: rgb(11, 121, 230); fill-opacity: 1;"/></g><g class="text"/></g><g class="trace scatter tracea80cc5" style="stroke-miterlimit: 2; opacity: 1;"><g class="fills"/><g class="errorbars"/><g class="lines"/><g class="points"><path class="point" transform="translate(7.1,21.12)" d="M2,0A2,2 0 1,1 0,-2A2,2 0 0,1 2,0Z" style="opacity: 1; stroke-width: 0px; fill: rgb(11, 121, 230); fill-opacity: 1;"/></g><g class="text"/></g><g class="trace scatter trace82af98" style="stroke-miterlimit: 2; opacity: 1;"><g class="fills"/><g class="errorbars"/><g class="lines"/><g class="points"><path class="point" transform="translate(7.43,21.12)" d="M2,0A2,2 0 1,1 0,-2A2,2 0 0,1 2,0Z" style="opacity: 1; stroke-width: 0px; fill: rgb(11, 121, 230); fill-opacity: 1;"/></g><g class="text"/></g></g></g><g class="overplot"/><path class="xlines-above crisp" d="M0,0" style="fill: none;"/><path class="ylines-above crisp" d="M0,0" style="fill: none;"/><g class="overlines-above"/><g class="xaxislayer-above"><g class="x3tick"><text text-anchor="middle" x="0" y="243" transform="translate(84.98,0)" style="font-family: 'Lucida Grande', 'Open Sans', verdana, arial, sans-serif; font-size: 9px; fill: rgb(0, 0, 0); fill-opacity: 0.5; white-space: pre; opacity: 1;">0%</text></g><g class="x3tick"><text text-anchor="middle" x="0" y="243" style="font-family: 'Lucida Grande', 'Open Sans', verdana, arial, sans-serif; font-size: 9px; fill: rgb(0, 0, 0); fill-opacity: 0.5; white-space: pre; opacity: 1;" transform="translate(283.98,0)">20%</text></g><g class="x3tick"><text text-anchor="middle" x="0" y="243" style="font-family: 'Lucida Grande', 'Open Sans', verdana, arial, sans-serif; font-size: 9px; fill: rgb(0, 0, 0); fill-opacity: 0.5; white-space: pre; opacity: 1;" transform="translate(482.99,0)">40%</text></g><g class="x3tick"><text text-anchor="middle" x="0" y="243" style="font-family: 'Lucida Grande', 'Open Sans', verdana, arial, sans-serif; font-size: 9px; fill: rgb(0, 0, 0); fill-opacity: 0.5; white-space: pre; opacity: 1;" transform="translate(681.99,0)">60%</text></g><g class="x3tick"><text text-anchor="middle" x="0" y="243" style="font-family: 'Lucida Grande', 'Open Sans', verdana, arial, sans-serif; font-size: 9px; fill: rgb(0, 0, 0); fill-opacity: 0.5; white-space: pre; opacity: 1;" transform="translate(881,0)">80%</text></g><g class="x3tick"><text text-anchor="middle" x="0" y="243" style="font-family: 'Lucida Grande', 'Open Sans', verdana, arial, sans-serif; font-size: 9px; fill: rgb(0, 0, 0); fill-opacity: 0.5; white-space: pre; opacity: 1;" transform="translate(1080,0)">100%</text></g></g><g class="yaxislayer-above"><g class="y3tick"><text text-anchor="end" x="79" y="3.15" transform="translate(0,211.88923076923078)" style="font-family: 'Lucida Grande', 'Open Sans', verdana, arial, sans-serif; font-size: 9px; fill: rgb(0, 0, 0); fill-opacity: 0.5; white-space: pre; opacity: 1;">% of all reads  </text></g></g><g class="overaxes-above"/></g></g><g class="polarlayer"/><g class="smithlayer"/><g class="ternarylayer"/><g class="geolayer"/><g class="funnelarealayer"/><g class="pielayer"/><g class="iciclelayer"/><g class="treemaplayer"/><g class="sunburstlayer"/><g class="glimages"/><defs id="topdefs-6fd7dc"><g class="clips"/></defs><g class="layer-above"><g class="imagelayer"/><g class="shapelayer"/></g><g class="infolayer"><g class="g-gtitle"/><g class="g-xtitle"/><g class="g-x2title"/><g class="g-x3title"/><g class="g-ytitle"/><g class="g-y2title"/><g class="g-y3title"/></g></svg>